<svg width="64" height="64" viewBox="0 0 64 64" fill="none" xmlns="http://www.w3.org/2000/svg">
<rect width="64" height="64" rx="32" fill="url(#paint0_linear_126_21921)"/>
<path d="M37 40.75H27C22.59 40.75 21.25 39.41 21.25 35V34.5C21.25 34.09 21.59 33.75 22 33.75C22.96 33.75 23.75 32.96 23.75 32C23.75 31.04 22.96 30.25 22 30.25C21.59 30.25 21.25 29.91 21.25 29.5V29C21.25 24.59 22.59 23.25 27 23.25H37C41.41 23.25 42.75 24.59 42.75 29V30C42.75 30.41 42.41 30.75 42 30.75C41.04 30.75 40.25 31.54 40.25 32.5C40.25 33.46 41.04 34.25 42 34.25C42.41 34.25 42.75 34.59 42.75 35C42.75 39.41 41.41 40.75 37 40.75ZM22.75 35.16C22.77 38.6 23.48 39.25 27 39.25H37C40.34 39.25 41.15 38.66 41.24 35.66C39.81 35.32 38.75 34.03 38.75 32.5C38.75 30.97 39.82 29.68 41.25 29.34V29C41.25 25.43 40.57 24.75 37 24.75H27C23.48 24.75 22.77 25.4 22.75 28.84C24.18 29.18 25.25 30.47 25.25 32C25.25 33.53 24.18 34.82 22.75 35.16Z" fill="white"/>
<path d="M35.0002 35.8799C34.4402 35.8799 33.9902 35.4299 33.9902 34.8799C33.9902 34.3299 34.4402 33.8799 34.9902 33.8799C35.5402 33.8799 35.9902 34.3299 35.9902 34.8799C35.9902 35.4299 35.5602 35.8799 35.0002 35.8799Z" fill="white"/>
<path d="M29.0002 30.8799C28.4402 30.8799 27.9902 30.4299 27.9902 29.8799C27.9902 29.3299 28.4402 28.8799 28.9902 28.8799C29.5402 28.8799 29.9902 29.3299 29.9902 29.8799C29.9902 30.4299 29.5602 30.8799 29.0002 30.8799Z" fill="white"/>
<path d="M28.6303 36.4301C28.4403 36.4301 28.2503 36.3601 28.1003 36.2101C27.8103 35.9201 27.8103 35.4401 28.1003 35.1501L34.8303 28.4201C35.1203 28.1301 35.6003 28.1301 35.8903 28.4201C36.1803 28.7101 36.1803 29.1901 35.8903 29.4801L29.1603 36.2101C29.0203 36.3601 28.8203 36.4301 28.6303 36.4301Z" fill="white"/>
<defs>
<linearGradient id="paint0_linear_126_21921" x1="0.666664" y1="14.6667" x2="60.6667" y2="56.6667" gradientUnits="userSpaceOnUse">
<stop stop-color="#3F494B"/>
<stop offset="1" stop-color="#0E101D"/>
</linearGradient>
</defs>
</svg>
