<svg width="90" height="32" viewBox="0 0 90 32" fill="none" xmlns="http://www.w3.org/2000/svg">
<path d="M0.142853 3.11539C0.142853 1.39481 1.53766 0 3.25824 0H86.1703C87.8909 0 89.2857 1.39481 89.2857 3.11538V28.8846C89.2857 30.6052 87.8909 32 86.1703 32H3.25824C1.53766 32 0.142853 30.6052 0.142853 28.8846V3.11539Z" fill="#151716"/>
<path d="M23.2737 15.4185C23.2808 14.8604 23.4277 14.3132 23.7007 13.8279C23.9737 13.3426 24.3639 12.9349 24.835 12.6429C24.5357 12.2115 24.1408 11.8565 23.6819 11.606C23.2229 11.3556 22.7124 11.2166 22.1909 11.2002C21.0779 11.0818 19.9993 11.8715 19.4327 11.8715C18.8548 11.8715 17.9827 11.2115 17.0419 11.2306C16.4341 11.2503 15.8416 11.4288 15.3224 11.7485C14.8032 12.0682 14.3749 12.5183 14.0793 13.0549C12.7973 15.2934 13.7531 18.5841 14.9809 20.3943C15.5954 21.2812 16.3129 22.2703 17.2523 22.2353C18.1713 22.1975 18.5122 21.6445 19.6227 21.6445C20.722 21.6445 21.0443 22.2353 22.0026 22.2134C22.9892 22.1975 23.6097 21.3229 24.2026 20.4283C24.6444 19.7971 24.984 19.0992 25.2088 18.3605C24.6363 18.1156 24.1476 17.7062 23.8038 17.1832C23.4599 16.6602 23.2759 16.0466 23.2748 15.4188L23.2737 15.4185ZM21.4643 10.009C22.0019 9.35761 22.2669 8.52025 22.2028 7.6748C21.3815 7.76262 20.6229 8.15875 20.0773 8.78467C19.8111 9.09074 19.6071 9.44678 19.4772 9.83244C19.3472 10.2181 19.2938 10.6258 19.32 11.0323C19.7309 11.0365 20.1374 10.9465 20.5089 10.769C20.8803 10.5915 21.207 10.3311 21.4643 10.0076V10.009Z" fill="white"/>
<path d="M36.5824 22.0819H35.2983L34.5951 19.8508H32.1494L31.4792 22.0819H30.2298L32.652 14.4848H34.1489L36.5827 22.0819H36.5824ZM34.3823 18.9148L33.7468 16.9318C33.6791 16.7292 33.5526 16.252 33.3674 15.5004H33.345C33.2699 15.8236 33.1506 16.3007 32.9873 16.9318L32.3622 18.9148H34.3823ZM42.8012 19.2766C42.8451 20.0835 42.5752 20.8757 42.0491 21.4847C41.8372 21.7181 41.5784 21.9033 41.29 22.0277C41.0015 22.1521 40.6901 22.213 40.3765 22.2062C40.0726 22.2315 39.7677 22.1724 39.4946 22.0354C39.2216 21.8984 38.9908 21.6886 38.8272 21.4289V24.3023H37.6197V18.4049C37.6197 17.82 37.6049 17.22 37.5753 16.6049H38.6354L38.7047 17.4735H38.7281C38.9107 17.191 39.1562 16.9555 39.4449 16.7858C39.7336 16.616 40.0576 16.5167 40.391 16.4958C40.7245 16.4748 41.0582 16.5328 41.3655 16.6652C41.6728 16.7975 41.9453 17.0005 42.1611 17.2579C42.6086 17.8309 42.8361 18.5477 42.8019 19.2766H42.8012ZM41.5728 19.3208C41.5915 18.8544 41.4668 18.3937 41.2158 18.0017C41.0991 17.8306 40.942 17.6915 40.7587 17.5972C40.5753 17.5028 40.3716 17.4562 40.1658 17.4615C39.8697 17.4612 39.583 17.5669 39.3567 17.7597C39.115 17.9589 38.9477 18.2353 38.8825 18.5434C38.8491 18.6644 38.8302 18.7889 38.8261 18.9144V19.8278C38.8163 20.1986 38.946 20.5593 39.189 20.8374C39.3068 20.972 39.4525 21.0788 39.6159 21.1499C39.7793 21.221 39.9562 21.2547 40.134 21.2487C40.3405 21.2567 40.5457 21.2125 40.7309 21.1199C40.9161 21.0273 41.0753 20.8893 41.1941 20.7186C41.4648 20.3053 41.598 19.8157 41.5745 19.3208H41.5728ZM49.0422 19.2766C49.086 20.0835 48.8161 20.8757 48.2901 21.4847C48.0781 21.7181 47.8193 21.9033 47.5309 22.0277C47.2425 22.1521 46.9311 22.213 46.6175 22.2062C46.3135 22.2313 46.0085 22.1722 45.7353 22.0352C45.4622 21.8982 45.2312 21.6886 45.0674 21.4289V24.3023H43.862V18.4049C43.862 17.82 43.847 17.22 43.8169 16.6049H44.8777L44.9449 17.4735H44.9673C45.15 17.191 45.3955 16.9555 45.6843 16.7857C45.973 16.616 46.2971 16.5167 46.6306 16.4958C46.9641 16.4748 47.2978 16.5328 47.6052 16.6652C47.9126 16.7975 48.1851 17.0005 48.401 17.2579C48.8481 17.8311 49.0756 18.5478 49.0418 19.2766H49.0422ZM47.8137 19.3208C47.8322 18.8544 47.7073 18.3936 47.456 18.0017C47.3394 17.8305 47.1823 17.6914 46.999 17.5971C46.8156 17.5027 46.6118 17.4561 46.4061 17.4615C46.1098 17.4616 45.823 17.5672 45.5962 17.7597C45.3548 17.9591 45.1876 18.2355 45.122 18.5434C45.0891 18.6645 45.0702 18.789 45.0656 18.9144V19.8278C45.0563 20.1984 45.1856 20.5588 45.4279 20.8374C45.5457 20.9719 45.6915 21.0785 45.8548 21.1496C46.0182 21.2207 46.1951 21.2545 46.3728 21.2487C46.5794 21.257 46.7847 21.2129 46.9699 21.1203C47.1551 21.0276 47.3143 20.8895 47.4329 20.7186C47.7037 20.3054 47.8371 19.8157 47.8137 19.3208ZM56.0209 19.9519C56.0302 20.2483 55.9751 20.5431 55.8594 20.8157C55.7438 21.0883 55.5703 21.3319 55.3514 21.5296C54.7748 22.0029 54.0432 22.2403 53.3015 22.1949C52.6206 22.2278 51.9446 22.0635 51.3531 21.7214L51.6331 20.7073C52.16 21.0229 52.7624 21.1867 53.375 21.1808C53.7531 21.204 54.1276 21.0946 54.4351 20.8713C54.5581 20.7729 54.6565 20.6468 54.7225 20.5031C54.7885 20.3594 54.8202 20.2021 54.8152 20.0437C54.8177 19.8993 54.7911 19.7559 54.737 19.6223C54.6828 19.4886 54.6023 19.3675 54.5002 19.2664C54.198 19.001 53.8447 18.8016 53.4625 18.6809C52.1447 18.1848 51.4854 17.4596 51.4847 16.5053C51.4779 16.2131 51.5372 15.9231 51.6581 15.6576C51.7791 15.392 51.9584 15.1578 52.1826 14.9728C52.7067 14.5543 53.3634 14.3419 54.0309 14.3749C54.6207 14.3541 55.2068 14.478 55.7388 14.7361L55.4367 15.7276C54.9914 15.4901 54.4938 15.3702 53.9903 15.3788C53.6308 15.3569 53.2759 15.4692 52.9931 15.6943C52.8965 15.7802 52.8195 15.8861 52.7672 16.0049C52.715 16.1236 52.6888 16.2524 52.6904 16.3823C52.6879 16.5248 52.7179 16.6661 52.778 16.7951C52.838 16.9241 52.9266 17.0375 53.0369 17.1265C53.3685 17.379 53.7378 17.5766 54.131 17.712C54.6716 17.9041 55.1607 18.2201 55.5599 18.6353C55.8709 19.001 56.0347 19.4712 56.0191 19.9529L56.0209 19.9519ZM60.0166 17.5183H58.6867V20.178C58.6867 20.8538 58.9211 21.1916 59.3898 21.1914C59.5699 21.1958 59.7497 21.1766 59.925 21.1345L59.96 22.0592C59.6575 22.1587 59.3402 22.2041 59.0224 22.1935C58.8159 22.2052 58.6094 22.172 58.4167 22.0961C58.2241 22.0202 58.0499 21.9034 57.9059 21.7536C57.5976 21.3277 57.4546 20.8025 57.5038 20.2773V17.5159H56.7117V16.6025H57.5038V15.6007L58.6878 15.2403V16.6035H60.0177V17.519L60.0166 17.5183ZM66.0014 19.2989C66.031 20.0562 65.7757 20.7968 65.2867 21.372C65.0359 21.6491 64.728 21.8674 64.3847 22.0116C64.0414 22.1557 63.671 22.2223 63.2995 22.2066C62.9435 22.2224 62.5884 22.159 62.2593 22.0208C61.9303 21.8827 61.6354 21.6731 61.3956 21.407C60.9142 20.8499 60.6606 20.1289 60.6862 19.39C60.656 18.626 60.918 17.8795 61.418 17.3053C61.6684 17.0335 61.9743 16.82 62.3147 16.6797C62.655 16.5393 63.0215 16.4755 63.3888 16.4926C63.747 16.4779 64.1041 16.5418 64.4355 16.6798C64.7669 16.8179 65.0647 17.0268 65.3084 17.2922C65.7843 17.8468 66.0321 18.564 66.001 19.2971L66.0014 19.2989ZM64.7519 19.3268C64.7646 18.8741 64.6528 18.4267 64.4289 18.0342C64.3266 17.8339 64.1707 17.6667 63.9789 17.5514C63.7871 17.436 63.5671 17.3774 63.344 17.3819C63.1177 17.3754 62.8943 17.4331 62.6989 17.5484C62.5035 17.6637 62.3441 17.832 62.2387 18.0342C62.0124 18.4341 61.9003 18.8895 61.915 19.3498C61.902 19.8026 62.014 20.2501 62.2387 20.6423C62.3455 20.8406 62.5034 21.0059 62.6958 21.1208C62.8882 21.2357 63.1078 21.2958 63.3313 21.2947C63.5549 21.2936 63.7739 21.2314 63.9652 21.1146C64.1565 20.9979 64.3129 20.831 64.4177 20.6317C64.6467 20.2365 64.762 19.7845 64.7505 19.3268H64.7519ZM69.9219 17.6752C69.7965 17.6524 69.6693 17.6413 69.5418 17.642C69.3509 17.633 69.1608 17.6727 68.989 17.7575C68.8173 17.8422 68.6694 17.9692 68.5591 18.1268C68.349 18.4466 68.2438 18.825 68.2585 19.2084V22.0819H67.0524V18.33C67.0538 17.755 67.0421 17.1802 67.0174 16.6056H68.0674L68.1118 17.654H68.1447C68.2591 17.3122 68.4683 17.0108 68.7474 16.7855C68.9991 16.5957 69.3047 16.4928 69.6188 16.4919C69.7197 16.4913 69.8205 16.4989 69.9202 16.5145V17.6752H69.9219ZM75.3131 19.0847C75.316 19.2696 75.3011 19.4543 75.2687 19.6363H71.6523C71.6441 19.8694 71.6869 20.1014 71.7776 20.3159C71.8684 20.5304 72.0048 20.7221 72.1772 20.8773C72.5137 21.1429 72.9331 21.2784 73.3598 21.2596C73.8594 21.2664 74.3559 21.1787 74.8235 21.001L75.0128 21.8451C74.4357 22.0832 73.8161 22.1984 73.1929 22.1836C72.8292 22.2038 72.4654 22.1477 72.1242 22.0188C71.7831 21.89 71.4721 21.6911 71.2109 21.4349C70.9649 21.1646 70.7745 20.8477 70.6509 20.5024C70.5273 20.1572 70.4729 19.7906 70.491 19.424C70.4645 18.6781 70.7021 17.9471 71.1612 17.3622C71.387 17.0757 71.6764 16.8469 72.006 16.6942C72.3356 16.5416 72.6962 16.4695 73.0585 16.4837C73.4043 16.4643 73.7492 16.5349 74.0602 16.6887C74.3712 16.8426 74.6379 17.0744 74.8347 17.3622C75.1667 17.8727 75.3339 18.4747 75.3131 19.0851V19.0847ZM74.1634 18.7692C74.1797 18.4408 74.098 18.1149 73.9289 17.8339C73.8296 17.6692 73.6877 17.5349 73.5185 17.4454C73.3494 17.3558 73.1592 17.3145 72.9686 17.3258C72.7807 17.3222 72.5948 17.3655 72.4275 17.4518C72.2602 17.5381 72.1165 17.6647 72.0092 17.8205C71.8039 18.0953 71.6801 18.4233 71.6523 18.7664H74.1634V18.7692Z" fill="white"/>
<path d="M31.8018 11.8267C31.5125 11.8286 31.2233 11.8139 30.9356 11.7829V8.11016C31.2731 8.05722 31.6142 8.03112 31.9558 8.03207C33.3383 8.03207 33.9756 8.71934 33.9756 9.8384C33.9749 11.1295 33.2228 11.8267 31.8018 11.8267ZM32.0048 8.50344C31.8449 8.50048 31.6851 8.5135 31.5278 8.54231V11.3338C31.6608 11.3479 31.7945 11.3535 31.9282 11.3504C32.8336 11.3504 33.3498 10.8299 33.3498 9.85535C33.3491 8.98575 32.8826 8.50308 32.0041 8.50308L32.0048 8.50344ZM35.9596 11.855C35.7827 11.8578 35.6072 11.8232 35.4443 11.7534C35.2813 11.6836 35.1347 11.5803 35.0137 11.4499C34.8927 11.3195 34.8001 11.1651 34.7417 10.9964C34.6834 10.8277 34.6606 10.6486 34.6749 10.4705C34.6591 10.2864 34.6821 10.1011 34.7422 9.92653C34.8024 9.75201 34.8984 9.59229 35.024 9.45784C35.1495 9.3234 35.3018 9.21726 35.4708 9.14637C35.6399 9.07549 35.8218 9.04146 36.0048 9.04653C36.1817 9.04246 36.3574 9.07604 36.5205 9.14508C36.6837 9.21412 36.8306 9.31707 36.9517 9.44723C37.0729 9.57739 37.1655 9.73185 37.2236 9.90055C37.2817 10.0693 37.3039 10.2484 37.2889 10.4264C37.3041 10.6104 37.2809 10.7955 37.2208 10.9699C37.1606 11.1442 37.0649 11.3039 36.9397 11.4385C36.8146 11.5732 36.6629 11.6798 36.4943 11.7514C36.3258 11.8231 36.1442 11.8583 35.9614 11.8546L35.9596 11.855ZM35.982 9.48434C35.5537 9.48434 35.2796 9.88857 35.2796 10.4532C35.2796 11.0076 35.5596 11.4122 35.9761 11.4122C36.3926 11.4122 36.6726 10.9797 36.6726 10.4419C36.6726 9.89422 36.3982 9.48469 35.982 9.48469V9.48434ZM41.7309 9.10201L40.8969 11.7942H40.3537L40.0079 10.6253C39.9222 10.3394 39.8508 10.0486 39.7937 9.75607H39.7815C39.7324 10.0509 39.6608 10.3416 39.5673 10.6253L39.1998 11.7942H38.6507L37.8664 9.10201H38.475L38.777 10.3818C38.8484 10.6869 38.9087 10.9749 38.958 11.2458H38.9692C39.0129 11.0196 39.084 10.7366 39.1886 10.3879L39.5673 9.10272H40.0503L40.4132 10.3606C40.5004 10.6656 40.5718 10.9645 40.6274 11.2468H40.6432C40.6863 10.9481 40.7467 10.6522 40.8241 10.3606L41.1478 9.10272H41.7295L41.7309 9.10201ZM44.8017 11.7942H44.2088V10.2483C44.2088 9.77266 44.0279 9.53381 43.6716 9.53381C43.5894 9.53667 43.5086 9.55613 43.434 9.59105C43.3594 9.62596 43.2925 9.67562 43.2372 9.73709C43.182 9.79855 43.1395 9.87058 43.1122 9.94892C43.085 10.0272 43.0736 10.1103 43.0787 10.1932V11.7945H42.4858V9.87231C42.4858 9.63415 42.4806 9.37763 42.4641 9.10237H42.9856L43.0125 9.51719H43.029C43.1162 9.37039 43.2403 9.24953 43.3888 9.16692C43.5372 9.0843 43.7047 9.04289 43.8742 9.04689C44.4342 9.04689 44.802 9.47939 44.802 10.1826V11.7945L44.8017 11.7942ZM46.4358 11.7942H45.8408V7.8667H46.4358V11.7942ZM48.5966 11.855C48.4196 11.8577 48.2441 11.8231 48.0812 11.7533C47.9184 11.6835 47.7717 11.5801 47.6507 11.4498C47.5298 11.3194 47.4371 11.165 47.3787 10.9963C47.3204 10.8277 47.2975 10.6486 47.3118 10.4705C47.296 10.2864 47.319 10.1011 47.3791 9.92653C47.4393 9.75201 47.5353 9.59229 47.6609 9.45784C47.7865 9.3234 47.9387 9.21726 48.1078 9.14637C48.2768 9.07549 48.4587 9.04146 48.6417 9.04653C48.8186 9.04246 48.9943 9.07604 49.1574 9.14508C49.3206 9.21412 49.4675 9.31707 49.5886 9.44723C49.7098 9.57739 49.8024 9.73185 49.8605 9.90055C49.9186 10.0693 49.9408 10.2484 49.9258 10.4264C49.9411 10.6104 49.918 10.7956 49.8579 10.97C49.7978 11.1444 49.7021 11.3041 49.5769 11.4388C49.4517 11.5734 49.3 11.68 49.1314 11.7517C48.9628 11.8233 48.7812 11.8584 48.5983 11.8546L48.5966 11.855ZM48.6183 9.48434C48.1899 9.48434 47.9158 9.88857 47.9158 10.4532C47.9158 11.0076 48.1958 11.4122 48.6123 11.4122C49.0288 11.4122 49.3088 10.9797 49.3088 10.4419C49.3088 9.89422 49.0354 9.48469 48.6183 9.48469V9.48434ZM52.2602 11.7942L52.2175 11.4839H52.2018C52.1123 11.6061 51.9941 11.7039 51.858 11.7687C51.7218 11.8334 51.5719 11.8631 51.4216 11.855C51.3156 11.8608 51.2096 11.8445 51.11 11.8072C51.0105 11.7699 50.9196 11.7123 50.843 11.6381C50.7665 11.5638 50.7058 11.4745 50.6649 11.3756C50.624 11.2766 50.6036 11.1703 50.6051 11.0631C50.6051 10.3984 51.1753 10.055 52.1633 10.055V10.0055C52.1633 9.65218 51.9771 9.4755 51.6096 9.4755C51.363 9.47115 51.1207 9.54062 50.9131 9.67515L50.7931 9.28151C51.0704 9.11862 51.3876 9.03792 51.7083 9.04865C52.4048 9.04865 52.7582 9.42038 52.7582 10.1624V11.1539C52.7539 11.3691 52.7667 11.5843 52.7964 11.7974H52.2613L52.2602 11.7942ZM52.179 10.4515C51.5207 10.4515 51.191 10.6129 51.191 10.9945C51.1851 11.0503 51.1915 11.1067 51.2096 11.1597C51.2278 11.2128 51.2574 11.2611 51.2962 11.3012C51.335 11.3413 51.3821 11.3723 51.4342 11.3919C51.4863 11.4116 51.542 11.4193 51.5973 11.4147C51.7461 11.4187 51.8904 11.3636 51.9993 11.2611C52.1081 11.1586 52.1726 11.0171 52.179 10.867V10.4515ZM55.6337 11.7942L55.6068 11.3617H55.5903C55.5114 11.5199 55.3881 11.6511 55.2358 11.7391C55.0835 11.827 54.909 11.8678 54.7339 11.8564C54.0913 11.8564 53.6139 11.2861 53.6139 10.4826C53.6139 9.64052 54.1078 9.04795 54.7815 9.04795C54.9281 9.03327 55.0758 9.05962 55.2084 9.12414C55.3411 9.18865 55.4536 9.28882 55.5336 9.41366H55.5455V7.86847H56.1384V11.0698C56.1384 11.3309 56.145 11.5744 56.1608 11.7959L55.6337 11.7942ZM55.5466 10.2101C55.5529 10.1225 55.5416 10.0344 55.5133 9.95134C55.485 9.86824 55.4403 9.79177 55.382 9.72656C55.3237 9.66135 55.2528 9.60875 55.1738 9.57192C55.0948 9.53509 55.0092 9.51479 54.9222 9.51225C54.4826 9.51225 54.2145 9.90517 54.2145 10.4589C54.2145 11.0013 54.4945 11.373 54.9103 11.373C54.9989 11.3693 55.0859 11.3478 55.1661 11.3097C55.2463 11.2716 55.3182 11.2176 55.3775 11.1511C55.4368 11.0845 55.4823 11.0066 55.5113 10.922C55.5404 10.8374 55.5523 10.7479 55.5466 10.6585V10.2101ZM59.9007 11.8546C59.7239 11.8573 59.5484 11.8225 59.3856 11.7527C59.2228 11.6829 59.0763 11.5795 58.9554 11.4492C58.8345 11.3188 58.7419 11.1644 58.6836 10.9958C58.6252 10.8272 58.6024 10.6482 58.6166 10.4702C58.6009 10.2861 58.6238 10.1007 58.684 9.92617C58.7442 9.75165 58.8402 9.59193 58.9658 9.45749C59.0913 9.32304 59.2436 9.2169 59.4126 9.14602C59.5817 9.07514 59.7636 9.04112 59.9466 9.04619C60.1234 9.04212 60.2992 9.07569 60.4623 9.14472C60.6255 9.21376 60.7724 9.31671 60.8935 9.44687C61.0146 9.57704 61.1073 9.7315 61.1654 9.9002C61.2235 10.0689 61.2457 10.2481 61.2307 10.426C61.2459 10.6102 61.2227 10.7956 61.1624 10.9701C61.1021 11.1447 61.0061 11.3044 60.8807 11.4391C60.7553 11.5738 60.6033 11.6803 60.4344 11.7519C60.2656 11.8234 60.0838 11.8583 59.9007 11.8543V11.8546ZM59.9224 9.48398C59.4948 9.48398 59.2207 9.88821 59.2207 10.4529C59.2207 11.0073 59.5007 11.4119 59.9172 11.4119C60.3337 11.4119 60.6136 10.9794 60.6136 10.4416C60.6136 9.89387 60.3403 9.48434 59.9224 9.48434V9.48398ZM64.4155 11.7938H63.8227V10.2479C63.8227 9.77232 63.6417 9.53345 63.2847 9.53345C63.2026 9.53641 63.1219 9.55594 63.0474 9.5909C62.9729 9.62585 62.9061 9.67552 62.8509 9.73698C62.7957 9.79844 62.7532 9.87043 62.726 9.94872C62.6988 10.027 62.6875 10.11 62.6926 10.1928V11.7942H62.1V9.87196C62.1 9.6338 62.0941 9.37727 62.0776 9.10201H62.5991L62.6271 9.51685H62.6436C62.7305 9.37 62.8545 9.24908 63.0029 9.16645C63.1512 9.08382 63.3187 9.04244 63.4881 9.04653C64.0481 9.04653 64.4159 9.47833 64.4159 10.1815L64.4155 11.7938ZM68.4029 9.55076H67.7506V10.8582C67.7506 11.1903 67.8646 11.3567 68.0953 11.3567C68.1836 11.3574 68.2718 11.3483 68.3581 11.3295L68.3746 11.7832C68.2265 11.8333 68.0708 11.8562 67.9147 11.8507C67.4482 11.8507 67.1685 11.5896 67.1685 10.9087V9.55147H66.7793V9.10237H67.1685V8.60768L67.7502 8.431V9.10237H68.4026V9.55147L68.4029 9.55076ZM71.5398 11.7938H70.9477V10.2592C70.9477 9.77761 70.7674 9.53416 70.4104 9.53416C70.3287 9.53198 70.2474 9.54723 70.1719 9.57891C70.0964 9.61058 70.0284 9.65797 69.9722 9.71799C69.9161 9.77801 69.8731 9.8493 69.8461 9.92722C69.8191 10.0051 69.8087 10.0879 69.8155 10.1702V11.7928H69.2233V7.8667H69.8155V9.48398H69.8274C69.9102 9.3454 70.0282 9.23173 70.1692 9.15474C70.3102 9.07776 70.469 9.04027 70.6292 9.04619C71.1934 9.04619 71.5391 9.48928 71.5391 10.1924V11.7938H71.5398ZM74.7541 10.5924H72.9755C72.9715 10.7026 72.9909 10.8124 73.0324 10.9143C73.074 11.0163 73.1366 11.1081 73.2162 11.1836C73.2957 11.2591 73.3904 11.3166 73.4937 11.3521C73.5971 11.3876 73.7068 11.4004 73.8154 11.3896C74.0605 11.392 74.3039 11.349 74.5336 11.2627L74.626 11.6776C74.3422 11.7945 74.0375 11.851 73.7311 11.8437C73.5519 11.8576 73.3718 11.8319 73.2034 11.7684C73.035 11.7049 72.8823 11.6051 72.756 11.476C72.6296 11.3469 72.5326 11.1916 72.4718 11.0208C72.4109 10.85 72.3877 10.6679 72.4036 10.4871C72.4036 9.66172 72.9093 9.04124 73.6636 9.04124C74.345 9.04124 74.7727 9.55112 74.7727 10.3211C74.7764 10.4118 74.7696 10.5026 74.7524 10.5917L74.7541 10.5924ZM74.2109 10.1659C74.2109 9.7504 74.0034 9.45749 73.624 9.45749C73.4474 9.4713 73.2825 9.55199 73.1624 9.68338C73.0423 9.81476 72.9757 9.98713 72.9762 10.1659H74.2109Z" fill="white"/>
</svg>
