<svg width="16" height="16" viewBox="0 0 16 16" fill="none" xmlns="http://www.w3.org/2000/svg">
<path d="M11.3333 14.1666H4.66667C2.23334 14.1666 0.833336 12.7666 0.833336 10.3333V5.66659C0.833336 3.23325 2.23334 1.83325 4.66667 1.83325H11.3333C13.7667 1.83325 15.1667 3.23325 15.1667 5.66659V10.3333C15.1667 12.7666 13.7667 14.1666 11.3333 14.1666ZM4.66667 2.83325C2.76 2.83325 1.83334 3.75992 1.83334 5.66659V10.3333C1.83334 12.2399 2.76 13.1666 4.66667 13.1666H11.3333C13.24 13.1666 14.1667 12.2399 14.1667 10.3333V5.66659C14.1667 3.75992 13.24 2.83325 11.3333 2.83325H4.66667Z" fill="#151716"/>
<path d="M4 11.1666C3.72667 11.1666 3.5 10.9399 3.5 10.6666V5.33325C3.5 5.05992 3.72667 4.83325 4 4.83325C4.27333 4.83325 4.5 5.05992 4.5 5.33325V10.6666C4.5 10.9399 4.27333 11.1666 4 11.1666Z" fill="#151716"/>
<path d="M6 8.49992C5.72667 8.49992 5.5 8.27325 5.5 7.99992V5.33325C5.5 5.05992 5.72667 4.83325 6 4.83325C6.27333 4.83325 6.5 5.05992 6.5 5.33325V7.99992C6.5 8.27325 6.27333 8.49992 6 8.49992Z" fill="#151716"/>
<path d="M6 11.1667C5.72667 11.1667 5.5 10.94 5.5 10.6667V10C5.5 9.72667 5.72667 9.5 6 9.5C6.27333 9.5 6.5 9.72667 6.5 10V10.6667C6.5 10.94 6.27333 11.1667 6 11.1667Z" fill="#151716"/>
<path d="M10 6.49992C9.72667 6.49992 9.5 6.27325 9.5 5.99992V5.33325C9.5 5.05992 9.72667 4.83325 10 4.83325C10.2733 4.83325 10.5 5.05992 10.5 5.33325V5.99992C10.5 6.27325 10.2733 6.49992 10 6.49992Z" fill="#151716"/>
<path d="M8 11.1666C7.72667 11.1666 7.5 10.9399 7.5 10.6666V5.33325C7.5 5.05992 7.72667 4.83325 8 4.83325C8.27333 4.83325 8.5 5.05992 8.5 5.33325V10.6666C8.5 10.9399 8.27333 11.1666 8 11.1666Z" fill="#151716"/>
<path d="M10 11.1667C9.72667 11.1667 9.5 10.94 9.5 10.6667V8C9.5 7.72667 9.72667 7.5 10 7.5C10.2733 7.5 10.5 7.72667 10.5 8V10.6667C10.5 10.94 10.2733 11.1667 10 11.1667Z" fill="#151716"/>
<path d="M12 11.1666C11.7267 11.1666 11.5 10.9399 11.5 10.6666V5.33325C11.5 5.05992 11.7267 4.83325 12 4.83325C12.2733 4.83325 12.5 5.05992 12.5 5.33325V10.6666C12.5 10.9399 12.2733 11.1666 12 11.1666Z" fill="#151716"/>
</svg>
