<svg width="25" height="24" viewBox="0 0 25 24" fill="none" xmlns="http://www.w3.org/2000/svg">
<path d="M7.5 10.75H5.5C3.08 10.75 1.75 9.42 1.75 7V5C1.75 2.58 3.08 1.25 5.5 1.25H7.5C9.92 1.25 11.25 2.58 11.25 5V7C11.25 9.42 9.92 10.75 7.5 10.75ZM5.5 2.75C3.92 2.75 3.25 3.42 3.25 5V7C3.25 8.58 3.92 9.25 5.5 9.25H7.5C9.08 9.25 9.75 8.58 9.75 7V5C9.75 3.42 9.08 2.75 7.5 2.75H5.5Z" fill="#98A2B3"/>
<path d="M19.5 10.75H17.5C15.08 10.75 13.75 9.42 13.75 7V5C13.75 2.58 15.08 1.25 17.5 1.25H19.5C21.92 1.25 23.25 2.58 23.25 5V7C23.25 9.42 21.92 10.75 19.5 10.75ZM17.5 2.75C15.92 2.75 15.25 3.42 15.25 5V7C15.25 8.58 15.92 9.25 17.5 9.25H19.5C21.08 9.25 21.75 8.58 21.75 7V5C21.75 3.42 21.08 2.75 19.5 2.75H17.5Z" fill="#98A2B3"/>
<path d="M19.5 22.75H17.5C15.08 22.75 13.75 21.42 13.75 19V17C13.75 14.58 15.08 13.25 17.5 13.25H19.5C21.92 13.25 23.25 14.58 23.25 17V19C23.25 21.42 21.92 22.75 19.5 22.75ZM17.5 14.75C15.92 14.75 15.25 15.42 15.25 17V19C15.25 20.58 15.92 21.25 17.5 21.25H19.5C21.08 21.25 21.75 20.58 21.75 19V17C21.75 15.42 21.08 14.75 19.5 14.75H17.5Z" fill="#98A2B3"/>
<path d="M7.5 22.75H5.5C3.08 22.75 1.75 21.42 1.75 19V17C1.75 14.58 3.08 13.25 5.5 13.25H7.5C9.92 13.25 11.25 14.58 11.25 17V19C11.25 21.42 9.92 22.75 7.5 22.75ZM5.5 14.75C3.92 14.75 3.25 15.42 3.25 17V19C3.25 20.58 3.92 21.25 5.5 21.25H7.5C9.08 21.25 9.75 20.58 9.75 19V17C9.75 15.42 9.08 14.75 7.5 14.75H5.5Z" fill="#98A2B3"/>
</svg>
