<svg width="25" height="24" viewBox="0 0 25 24" fill="none" xmlns="http://www.w3.org/2000/svg">
<path d="M7.74 2H5.84C3.65 2 2.5 3.15 2.5 5.33V7.23C2.5 9.41 3.65 10.56 5.83 10.56H7.73C9.91 10.56 11.06 9.41 11.06 7.23V5.33C11.07 3.15 9.92 2 7.74 2Z" fill="#007A49"/>
<path d="M19.17 2H17.27C15.09 2 13.94 3.15 13.94 5.33V7.23C13.94 9.41 15.09 10.56 17.27 10.56H19.17C21.35 10.56 22.5 9.41 22.5 7.23V5.33C22.5 3.15 21.35 2 19.17 2Z" fill="#007A49"/>
<path d="M19.17 13.43H17.27C15.09 13.43 13.94 14.58 13.94 16.76V18.66C13.94 20.84 15.09 21.99 17.27 21.99H19.17C21.35 21.99 22.5 20.84 22.5 18.66V16.76C22.5 14.58 21.35 13.43 19.17 13.43Z" fill="#007A49"/>
<path d="M7.74 13.43H5.84C3.65 13.43 2.5 14.58 2.5 16.76V18.66C2.5 20.85 3.65 22 5.83 22H7.73C9.91 22 11.06 20.85 11.06 18.67V16.77C11.07 14.58 9.92 13.43 7.74 13.43Z" fill="#007A49"/>
</svg>
