<svg width="36" height="36" viewBox="0 0 36 36" fill="none" xmlns="http://www.w3.org/2000/svg">
<path d="M17.128 15.004C16.8031 14.679 16.8031 14.1523 17.128 13.8273C17.453 13.5024 17.9798 13.5024 18.3046 13.8273L21.0502 16.5728L23.7956 13.8273C24.1205 13.5024 24.6473 13.5024 24.9723 13.8273C25.2971 14.1522 25.2971 14.679 24.9723 15.004L22.2267 17.7494L24.9723 20.4949C25.2971 20.8198 25.2971 21.3466 24.9723 21.6715C24.6473 21.9964 24.1205 21.9964 23.7956 21.6715L21.0502 18.926L18.3046 21.6715C17.9798 21.9964 17.453 21.9964 17.1281 21.6715C16.8031 21.3465 16.8031 20.8198 17.1281 20.4948L19.8736 17.7495L17.128 15.004Z" fill="#475467"/>
<path fill-rule="evenodd" clip-rule="evenodd" d="M13.6968 9.2948L5.24219 17.7494L13.6968 26.204C14.3209 26.8281 15.1674 27.1787 16.0501 27.1787H27.4289C29.2669 27.1787 30.7569 25.6887 30.7569 23.8507V11.6481C30.7569 9.81006 29.2669 8.32007 27.4289 8.32007H16.0501C15.1674 8.32007 14.3209 8.67073 13.6968 9.2948ZM27.4289 25.7366H16.0501C15.5498 25.7366 15.0702 25.5379 14.7165 25.1843L7.2817 17.7494L14.7165 10.3146C15.0702 9.96091 15.5498 9.76219 16.0501 9.76219H27.4289C28.4703 9.76219 29.3147 10.6065 29.3147 11.6481V23.8507C29.3147 24.8923 28.4703 25.7366 27.4289 25.7366Z" fill="#475467"/>
</svg>
