<svg width="57" height="56" viewBox="0 0 57 56" fill="none" xmlns="http://www.w3.org/2000/svg">
<path d="M28.4986 31.0328C28.1953 31.0328 27.8919 30.9628 27.6119 30.7994L7.00851 18.8761C6.16851 18.3861 5.88846 17.3127 6.37846 16.4727C6.86846 15.6327 7.91846 15.3527 8.78179 15.8427L28.4986 27.2528L48.0984 15.9127C48.9384 15.4227 50.0117 15.7261 50.5017 16.5428C50.9917 17.3828 50.6886 18.456 49.8719 18.946L29.4086 30.7994C29.1053 30.9394 28.8019 31.0328 28.4986 31.0328Z" fill="#EAECF0"/>
<path d="M28.5 52.1731C27.5433 52.1731 26.75 51.3798 26.75 50.4231V29.2598C26.75 28.3031 27.5433 27.5098 28.5 27.5098C29.4567 27.5098 30.25 28.3031 30.25 29.2598V50.4231C30.25 51.3798 29.4567 52.1731 28.5 52.1731Z" fill="#EAECF0"/>
<path d="M28.5014 53.0827C26.4481 53.0827 24.4181 52.6393 22.8081 51.7527L10.3481 44.8227C6.96475 42.956 4.32811 38.4527 4.32811 34.5793V21.396C4.32811 17.5226 6.96475 13.0427 10.3481 11.1527L22.8081 4.24602C26.0047 2.47268 30.9981 2.47268 34.1947 4.24602L46.6547 11.1759C50.0381 13.0426 52.6747 17.546 52.6747 21.4193V34.6027C52.6747 38.476 50.0381 42.956 46.6547 44.846L34.1947 51.7527C32.5847 52.6393 30.5547 53.0827 28.5014 53.0827ZM28.5014 6.41599C27.0314 6.41599 25.5847 6.71935 24.5114 7.30268L12.0514 14.2326C9.81144 15.4926 7.82811 18.8293 7.82811 21.4193V34.6027C7.82811 37.1693 9.81144 40.5293 12.0514 41.7893L24.5114 48.7193C26.6347 49.9093 30.3681 49.9093 32.4914 48.7193L44.9514 41.7893C47.1914 40.5293 49.1747 37.1927 49.1747 34.6027V21.4193C49.1747 18.8527 47.1914 15.4926 44.9514 14.2326L32.4914 7.30268C31.4181 6.71935 29.9714 6.41599 28.5014 6.41599Z" fill="#EAECF0"/>
<path d="M40.1695 32.6432C39.2128 32.6432 38.4195 31.8498 38.4195 30.8932V23.3801L17.1394 11.1067C16.2994 10.6167 16.0193 9.54328 16.5093 8.72661C16.9993 7.88661 18.0494 7.60657 18.8894 8.09657L41.0328 20.8833C41.5695 21.1867 41.9195 21.7699 41.9195 22.3999V30.9401C41.9195 31.8501 41.1261 32.6432 40.1695 32.6432Z" fill="#EAECF0"/>
</svg>
