<svg width="57" height="56" viewBox="0 0 57 56" fill="none" xmlns="http://www.w3.org/2000/svg">
<path d="M30.8335 34.4167H28.5002C27.5435 34.4167 26.7502 33.6233 26.7502 32.6667C26.7502 31.71 27.5435 30.9167 28.5002 30.9167H30.8335C32.4435 30.9167 33.7502 29.61 33.7502 28V6.41666H14.5001C11.7468 6.41666 9.22674 7.90994 7.87341 10.3133C7.40674 11.1533 6.3335 11.4567 5.4935 10.99C4.6535 10.5234 4.35007 9.44999 4.81674 8.60999C6.77674 5.10999 10.4868 2.91666 14.5001 2.91666H35.5002C36.4569 2.91666 37.2502 3.70999 37.2502 4.66666V28C37.2502 31.5467 34.3802 34.4167 30.8335 34.4167Z" fill="#EAECF0"/>
<path d="M44.8327 48.4167H42.4993C41.5427 48.4167 40.7493 47.6233 40.7493 46.6667C40.7493 45.0567 39.4427 43.75 37.8327 43.75C36.2227 43.75 34.916 45.0567 34.916 46.6667C34.916 47.6233 34.1227 48.4167 33.166 48.4167H23.8327C22.876 48.4167 22.0827 47.6233 22.0827 46.6667C22.0827 45.0567 20.776 43.75 19.166 43.75C17.556 43.75 16.2493 45.0567 16.2493 46.6667C16.2493 47.6233 15.456 48.4167 14.4993 48.4167H12.166C7.33602 48.4167 3.41602 44.4967 3.41602 39.6667C3.41602 38.71 4.20935 37.9167 5.16602 37.9167C6.12268 37.9167 6.91602 38.71 6.91602 39.6667C6.91602 42.56 9.27268 44.9167 12.166 44.9167H12.9826C13.7526 42.2333 16.226 40.25 19.166 40.25C22.106 40.25 24.5793 42.2333 25.3493 44.9167H31.6727C32.4427 42.2333 34.916 40.25 37.856 40.25C40.796 40.25 43.2693 42.2333 44.0393 44.9167H44.8327C47.726 44.9167 50.0827 42.56 50.0827 39.6667V34.4167H44.8327C42.5927 34.4167 40.7493 32.5733 40.7493 30.3333V23.3333C40.7493 21.0933 42.5693 19.25 44.8327 19.25L42.336 14.8867C41.8227 13.9767 40.8427 13.4167 39.7927 13.4167H37.2493V28C37.2493 31.5467 34.3793 34.4167 30.8327 34.4167H28.4993C27.5427 34.4167 26.7493 33.6233 26.7493 32.6667C26.7493 31.71 27.5427 30.9167 28.4993 30.9167H30.8327C32.4427 30.9167 33.7493 29.61 33.7493 28V11.6667C33.7493 10.71 34.5427 9.91666 35.4993 9.91666H39.7927C42.1027 9.91666 44.226 11.1533 45.3693 13.16L49.3593 20.1367C49.6627 20.6733 49.6627 21.35 49.3593 21.8867C49.056 22.4233 48.4727 22.75 47.8427 22.75H44.8327C44.506 22.75 44.2493 23.0067 44.2493 23.3333V30.3333C44.2493 30.66 44.506 30.9167 44.8327 30.9167H51.8327C52.7893 30.9167 53.5827 31.71 53.5827 32.6667V39.6667C53.5827 44.4967 49.6627 48.4167 44.8327 48.4167Z" fill="#EAECF0"/>
<path d="M19.1667 53.0833C15.62 53.0833 12.75 50.2133 12.75 46.6667C12.75 43.12 15.62 40.25 19.1667 40.25C22.7133 40.25 25.5833 43.12 25.5833 46.6667C25.5833 50.2133 22.7133 53.0833 19.1667 53.0833ZM19.1667 43.75C17.5567 43.75 16.25 45.0567 16.25 46.6667C16.25 48.2767 17.5567 49.5833 19.1667 49.5833C20.7767 49.5833 22.0833 48.2767 22.0833 46.6667C22.0833 45.0567 20.7767 43.75 19.1667 43.75Z" fill="#EAECF0"/>
<path d="M37.8327 53.0833C34.286 53.0833 31.416 50.2133 31.416 46.6667C31.416 43.12 34.286 40.25 37.8327 40.25C41.3793 40.25 44.2493 43.12 44.2493 46.6667C44.2493 50.2133 41.3793 53.0833 37.8327 53.0833ZM37.8327 43.75C36.2227 43.75 34.916 45.0567 34.916 46.6667C34.916 48.2767 36.2227 49.5833 37.8327 49.5833C39.4427 49.5833 40.7493 48.2767 40.7493 46.6667C40.7493 45.0567 39.4427 43.75 37.8327 43.75Z" fill="#EAECF0"/>
<path d="M51.8333 34.4167H44.8333C42.5933 34.4167 40.75 32.5733 40.75 30.3333V23.3333C40.75 21.0933 42.5933 19.25 44.8333 19.25H47.8433C48.4733 19.25 49.0567 19.5767 49.36 20.1367L53.35 27.1367C53.49 27.3933 53.5833 27.6967 53.5833 28V32.6667C53.5833 33.6233 52.79 34.4167 51.8333 34.4167ZM44.8333 22.75C44.5067 22.75 44.25 23.0067 44.25 23.3333V30.3333C44.25 30.66 44.5067 30.9167 44.8333 30.9167H50.0833V28.4667L46.8167 22.75H44.8333Z" fill="#EAECF0"/>
<path d="M19.166 20.4167H5.16602C4.20935 20.4167 3.41602 19.6233 3.41602 18.6667C3.41602 17.71 4.20935 16.9167 5.16602 16.9167H19.166C20.1227 16.9167 20.916 17.71 20.916 18.6667C20.916 19.6233 20.1227 20.4167 19.166 20.4167Z" fill="#EAECF0"/>
<path d="M14.4993 27.4167H5.16602C4.20935 27.4167 3.41602 26.6233 3.41602 25.6667C3.41602 24.71 4.20935 23.9167 5.16602 23.9167H14.4993C15.456 23.9167 16.2493 24.71 16.2493 25.6667C16.2493 26.6233 15.456 27.4167 14.4993 27.4167Z" fill="#EAECF0"/>
<path d="M9.83268 34.4167H5.16602C4.20935 34.4167 3.41602 33.6233 3.41602 32.6667C3.41602 31.71 4.20935 30.9167 5.16602 30.9167H9.83268C10.7893 30.9167 11.5827 31.71 11.5827 32.6667C11.5827 33.6233 10.7893 34.4167 9.83268 34.4167Z" fill="#EAECF0"/>
</svg>
