<svg width="32" height="32" viewBox="0 0 32 32" fill="none" xmlns="http://www.w3.org/2000/svg">
<rect width="32" height="32" rx="16" fill="#EAECF0"/>
<path d="M16 9.5C14.7144 9.5 13.4577 9.88122 12.3888 10.5954C11.3199 11.3097 10.4868 12.3248 9.99479 13.5126C9.50282 14.7003 9.37409 16.0072 9.6249 17.2681C9.8757 18.529 10.4948 19.6872 11.4038 20.5962C12.3129 21.5052 13.471 22.1243 14.7319 22.3751C15.9928 22.6259 17.2997 22.4972 18.4874 22.0052C19.6752 21.5132 20.6903 20.6801 21.4046 19.6112C22.1188 18.5423 22.5 17.2856 22.5 16C22.4982 14.2767 21.8128 12.6244 20.5942 11.4058C19.3756 10.1872 17.7234 9.50182 16 9.5ZM16.5 21.4769V17.5H18C18.1326 17.5 18.2598 17.4473 18.3536 17.3536C18.4473 17.2598 18.5 17.1326 18.5 17C18.5 16.8674 18.4473 16.7402 18.3536 16.6464C18.2598 16.5527 18.1326 16.5 18 16.5H16.5V15C16.5 14.7348 16.6054 14.4804 16.7929 14.2929C16.9804 14.1054 17.2348 14 17.5 14H18.5C18.6326 14 18.7598 13.9473 18.8536 13.8536C18.9473 13.7598 19 13.6326 19 13.5C19 13.3674 18.9473 13.2402 18.8536 13.1464C18.7598 13.0527 18.6326 13 18.5 13H17.5C16.9696 13 16.4609 13.2107 16.0858 13.5858C15.7107 13.9609 15.5 14.4696 15.5 15V16.5H14C13.8674 16.5 13.7402 16.5527 13.6464 16.6464C13.5527 16.7402 13.5 16.8674 13.5 17C13.5 17.1326 13.5527 17.2598 13.6464 17.3536C13.7402 17.4473 13.8674 17.5 14 17.5H15.5V21.4769C14.0905 21.3482 12.7849 20.6811 11.8547 19.6144C10.9244 18.5476 10.4413 17.1633 10.5057 15.7494C10.5701 14.3355 11.1771 13.0008 12.2004 12.0231C13.2238 11.0453 14.5846 10.4996 16 10.4996C17.4154 10.4996 18.7763 11.0453 19.7996 12.0231C20.8229 13.0008 21.4299 14.3355 21.4943 15.7494C21.5587 17.1633 21.0756 18.5476 20.1454 19.6144C19.2152 20.6811 17.9095 21.3482 16.5 21.4769Z" fill="#151716"/>
</svg>
