<svg width="24" height="24" viewBox="0 0 24 24" fill="none" xmlns="http://www.w3.org/2000/svg">
<path d="M10.9384 22.6496C10.4584 22.6496 9.98844 22.5296 9.54844 22.2896C8.66844 21.7996 8.13844 20.9096 8.13844 19.9096V14.6096C8.13844 14.1096 7.80844 13.3596 7.49844 12.9796L3.75844 9.01961C3.12844 8.38961 2.64844 7.30961 2.64844 6.49961V4.19961C2.64844 2.59961 3.85844 1.34961 5.39844 1.34961H18.5984C20.1184 1.34961 21.3484 2.57961 21.3484 4.09961V6.29961C21.3484 7.34961 20.7184 8.53961 20.1284 9.12961L15.7984 12.9596C15.3784 13.3096 15.0484 14.0796 15.0484 14.6996V18.9996C15.0484 19.8896 14.4884 20.9196 13.7884 21.3396L12.4084 22.2296C11.9584 22.5096 11.4484 22.6496 10.9384 22.6496ZM5.39844 2.84961C4.69844 2.84961 4.14844 3.43961 4.14844 4.19961V6.49961C4.14844 6.86961 4.44844 7.58961 4.82844 7.96961L8.63844 11.9796C9.14844 12.6096 9.64844 13.6596 9.64844 14.5996V19.8996C9.64844 20.5496 10.0984 20.8696 10.2884 20.9696C10.7084 21.1996 11.2184 21.1996 11.6084 20.9596L12.9984 20.0696C13.2784 19.8996 13.5584 19.3596 13.5584 18.9996V14.6996C13.5584 13.6296 14.0784 12.4496 14.8284 11.8196L19.1084 8.02961C19.4484 7.68961 19.8584 6.87961 19.8584 6.28961V4.09961C19.8584 3.40961 19.2984 2.84961 18.6084 2.84961H5.39844Z" fill="#151716"/>
<path d="M6.00358 10.7503C5.86358 10.7503 5.73358 10.7103 5.60358 10.6403C5.25358 10.4203 5.14358 9.95026 5.36358 9.60026L10.2936 1.70026C10.5136 1.35026 10.9736 1.24026 11.3236 1.46026C11.6736 1.68026 11.7836 2.14026 11.5636 2.49026L6.63358 10.3903C6.49358 10.6203 6.25358 10.7503 6.00358 10.7503Z" fill="#151716"/>
</svg>
