<svg width="25" height="24" viewBox="0 0 25 24" fill="none" xmlns="http://www.w3.org/2000/svg">
<path d="M21.33 8.01002L14.78 2.77002C13.5 1.75002 11.5 1.74002 10.23 2.76002L3.68002 8.01002C2.74002 8.76002 2.17002 10.26 2.37002 11.44L3.63002 18.98C3.92002 20.67 5.49002 22 7.20002 22H17.8C19.49 22 21.09 20.64 21.38 18.97L22.64 11.43C22.82 10.26 22.25 8.76002 21.33 8.01002ZM13.25 18C13.25 18.41 12.91 18.75 12.5 18.75C12.09 18.75 11.75 18.41 11.75 18V15C11.75 14.59 12.09 14.25 12.5 14.25C12.91 14.25 13.25 14.59 13.25 15V18Z" fill="#007A49"/>
</svg>
