<svg width="57" height="56" viewBox="0 0 57 56" fill="none" xmlns="http://www.w3.org/2000/svg">
<path d="M28.4989 31.0331C28.1956 31.0331 27.8923 30.9631 27.6123 30.7998L7.00884 18.8764C6.16884 18.3864 5.88879 17.313 6.37879 16.473C6.86879 15.633 7.91879 15.353 8.78213 15.843L28.4989 27.2531L48.0987 15.9131C48.9387 15.4231 50.012 15.7264 50.502 16.5431C50.992 17.3831 50.6889 18.4564 49.8723 18.9464L29.4089 30.7998C29.1056 30.9398 28.8023 31.0331 28.4989 31.0331Z" fill="#98A2B3"/>
<path d="M28.5 52.1733C27.5433 52.1733 26.75 51.38 26.75 50.4233V29.26C26.75 28.3033 27.5433 27.51 28.5 27.51C29.4567 27.51 30.25 28.3033 30.25 29.26V50.4233C30.25 51.38 29.4567 52.1733 28.5 52.1733Z" fill="#98A2B3"/>
<path d="M28.5014 53.0833C26.4481 53.0833 24.4181 52.64 22.8081 51.7533L10.3481 44.8233C6.96477 42.9567 4.32812 38.4533 4.32812 34.58V21.3966C4.32812 17.5233 6.96477 13.0434 10.3481 11.1534L22.8081 4.24666C26.0047 2.47332 30.9981 2.47332 34.1947 4.24666L46.6547 11.1766C50.0381 13.0433 52.6747 17.5466 52.6747 21.42V34.6033C52.6747 38.4767 50.0381 42.9567 46.6547 44.8467L34.1947 51.7533C32.5847 52.64 30.5547 53.0833 28.5014 53.0833ZM28.5014 6.41663C27.0314 6.41663 25.5847 6.71999 24.5114 7.30332L12.0515 14.2333C9.81146 15.4933 7.82812 18.83 7.82812 21.42V34.6033C7.82812 37.17 9.81146 40.53 12.0515 41.79L24.5114 48.72C26.6347 49.91 30.3681 49.91 32.4914 48.72L44.9514 41.79C47.1914 40.53 49.1747 37.1933 49.1747 34.6033V21.42C49.1747 18.8533 47.1914 15.4933 44.9514 14.2333L32.4914 7.30332C31.4181 6.71999 29.9714 6.41663 28.5014 6.41663Z" fill="#98A2B3"/>
<path d="M40.1698 32.6433C39.2131 32.6433 38.4198 31.85 38.4198 30.8933V23.3802L17.1397 11.1068C16.2997 10.6168 16.0197 9.54346 16.5097 8.7268C16.9997 7.8868 18.0497 7.60675 18.8897 8.09675L41.0331 20.8835C41.5698 21.1868 41.9198 21.7701 41.9198 22.4001V30.9402C41.9198 31.8503 41.1265 32.6433 40.1698 32.6433Z" fill="#98A2B3"/>
</svg>
