<svg width="56" height="56" viewBox="0 0 56 56" fill="none" xmlns="http://www.w3.org/2000/svg">
<path d="M28.0003 50.5169C27.277 50.5169 26.577 50.4236 25.9937 50.2136C17.0803 47.1569 2.91699 36.3069 2.91699 20.2769C2.91699 12.1102 9.52033 5.48358 17.6403 5.48358C21.5837 5.48358 25.2703 7.02358 28.0003 9.77692C30.7303 7.02358 34.417 5.48358 38.3603 5.48358C46.4803 5.48358 53.0837 12.1336 53.0837 20.2769C53.0837 36.3302 38.9203 47.1569 30.007 50.2136C29.4237 50.4236 28.7237 50.5169 28.0003 50.5169ZM17.6403 8.98358C11.457 8.98358 6.41699 14.0469 6.41699 20.2769C6.41699 36.2136 21.747 45.0802 27.137 46.9236C27.557 47.0636 28.467 47.0636 28.887 46.9236C34.2537 45.0802 49.607 36.2369 49.607 20.2769C49.607 14.0469 44.567 8.98358 38.3837 8.98358C34.837 8.98358 31.547 10.6402 29.4237 13.5102C28.7703 14.3969 27.277 14.3969 26.6237 13.5102C24.4537 10.6169 21.187 8.98358 17.6403 8.98358Z" fill="#98A2B3"/>
</svg>
