<svg width="32" height="32" viewBox="0 0 32 32" fill="none" xmlns="http://www.w3.org/2000/svg">
<rect width="32" height="32" rx="16" fill="#EAECF0"/>
<path d="M16 13C15.4067 13 14.8266 13.1759 14.3333 13.5056C13.8399 13.8352 13.4554 14.3038 13.2284 14.8519C13.0013 15.4001 12.9419 16.0033 13.0576 16.5853C13.1734 17.1672 13.4591 17.7018 13.8787 18.1213C14.2982 18.5409 14.8328 18.8266 15.4147 18.9424C15.9967 19.0581 16.5999 18.9987 17.1481 18.7716C17.6962 18.5446 18.1648 18.1601 18.4944 17.6667C18.8241 17.1734 19 16.5933 19 16C18.9992 15.2046 18.6828 14.442 18.1204 13.8796C17.558 13.3172 16.7954 13.0008 16 13ZM16 18C15.6044 18 15.2178 17.8827 14.8889 17.6629C14.56 17.4432 14.3036 17.1308 14.1522 16.7654C14.0009 16.3999 13.9613 15.9978 14.0384 15.6098C14.1156 15.2219 14.3061 14.8655 14.5858 14.5858C14.8655 14.3061 15.2219 14.1156 15.6098 14.0384C15.9978 13.9613 16.3999 14.0009 16.7654 14.1522C17.1308 14.3036 17.4432 14.56 17.6629 14.8889C17.8827 15.2178 18 15.6044 18 16C18 16.5304 17.7893 17.0391 17.4142 17.4142C17.0391 17.7893 16.5304 18 16 18ZM19 9.5H13C12.072 9.50099 11.1824 9.87006 10.5262 10.5262C9.87006 11.1824 9.50099 12.072 9.5 13V19C9.50099 19.928 9.87006 20.8176 10.5262 21.4738C11.1824 22.1299 12.072 22.499 13 22.5H19C19.928 22.499 20.8176 22.1299 21.4738 21.4738C22.1299 20.8176 22.499 19.928 22.5 19V13C22.499 12.072 22.1299 11.1824 21.4738 10.5262C20.8176 9.87006 19.928 9.50099 19 9.5ZM21.5 19C21.5 19.663 21.2366 20.2989 20.7678 20.7678C20.2989 21.2366 19.663 21.5 19 21.5H13C12.337 21.5 11.7011 21.2366 11.2322 20.7678C10.7634 20.2989 10.5 19.663 10.5 19V13C10.5 12.337 10.7634 11.7011 11.2322 11.2322C11.7011 10.7634 12.337 10.5 13 10.5H19C19.663 10.5 20.2989 10.7634 20.7678 11.2322C21.2366 11.7011 21.5 12.337 21.5 13V19ZM20 12.75C20 12.8983 19.956 13.0433 19.8736 13.1667C19.7912 13.29 19.6741 13.3861 19.537 13.4429C19.4 13.4997 19.2492 13.5145 19.1037 13.4856C18.9582 13.4567 18.8246 13.3852 18.7197 13.2803C18.6148 13.1754 18.5434 13.0418 18.5144 12.8963C18.4855 12.7508 18.5003 12.6 18.5571 12.463C18.6139 12.3259 18.71 12.2088 18.8333 12.1264C18.9567 12.044 19.1017 12 19.25 12C19.4489 12 19.6397 12.079 19.7803 12.2197C19.921 12.3603 20 12.5511 20 12.75Z" fill="#151716"/>
</svg>
