<svg width="56" height="56" viewBox="0 0 56 56" fill="none" xmlns="http://www.w3.org/2000/svg">
<path fill-rule="evenodd" clip-rule="evenodd" d="M26.9711 1.01549C26.1941 1.26749 25.7461 1.71549 25.5291 2.44699C25.4066 2.85649 25.3856 3.80849 25.3856 8.77849C25.3856 15.362 25.3786 15.278 26.0506 15.95C26.9501 16.846 29.0501 16.846 29.9496 15.95C30.6216 15.278 30.6146 15.362 30.6146 8.77849C30.6146 2.40849 30.6041 2.29649 30.0861 1.68049C29.6521 1.16599 29.1866 0.994486 28.1401 0.966486C27.7497 0.944487 27.3582 0.9609 26.9711 1.01549ZM9.63558 7.93149C9.08258 8.18349 8.26708 8.98149 7.98358 9.54849C7.83896 9.83193 7.76009 10.1443 7.75282 10.4624C7.74554 10.7806 7.81006 11.0962 7.94158 11.386C8.20058 11.9635 16.3346 20.1255 16.9751 20.451C17.8816 20.9165 18.8126 20.689 19.7506 19.772C20.6746 18.869 20.9196 17.889 20.4506 16.9755C20.1251 16.335 11.9631 8.20099 11.3856 7.94199C11.1096 7.82249 10.8124 7.75996 10.5116 7.75816C10.2109 7.75635 9.91295 7.81531 9.63558 7.93149ZM44.9856 7.98749C44.5551 8.18699 43.8201 8.87649 40.3131 12.394C37.0896 15.6245 36.1061 16.6675 35.9486 17.0105C35.8177 17.2949 35.7502 17.6043 35.7508 17.9174C35.7515 18.2304 35.8201 18.5396 35.9521 18.8235C36.1971 19.3485 37.0021 20.1745 37.5446 20.458C38.0941 20.745 38.9096 20.7415 39.4801 20.451C40.0646 20.15 48.1496 12.065 48.4506 11.4805C48.5939 11.1796 48.6692 10.8507 48.671 10.5174C48.6728 10.1841 48.6011 9.85446 48.4611 9.55199C48.0737 8.90426 47.5266 8.36678 46.8721 7.99099C46.5824 7.83452 46.2585 7.7523 45.9293 7.75169C45.6 7.75108 45.2758 7.83209 44.9856 7.98749ZM2.44658 25.5225C1.41408 25.848 0.903076 26.6705 0.903076 27.997C0.906576 29.3515 1.41058 30.1635 2.44308 30.4715C2.85608 30.594 3.77658 30.615 8.77808 30.615C13.9896 30.615 14.6861 30.5975 15.1131 30.4575C15.4267 30.3544 15.7118 30.1791 15.9452 29.9456C16.1787 29.7122 16.354 29.4271 16.4571 29.1135C16.7581 28.186 16.6076 26.87 16.1281 26.219C15.9359 26.01 15.7099 25.8349 15.4596 25.701L14.9801 25.435L8.91458 25.414C4.03208 25.4 2.76858 25.421 2.44658 25.5225ZM41.1076 25.4735C40.6343 25.6039 40.2066 25.8632 39.8721 26.2225C39.3926 26.87 39.2421 28.186 39.5431 29.1135C39.7461 29.7435 40.2571 30.2545 40.8871 30.4575C41.3141 30.5975 42.0106 30.615 47.2221 30.615C52.2236 30.615 53.1441 30.594 53.5571 30.4715C54.5896 30.1635 55.0936 29.3515 55.0971 27.997C55.0971 26.6495 54.5826 25.841 53.5151 25.519C53.1546 25.4105 52.0241 25.3895 47.2361 25.3965C44.0231 25.4035 41.2651 25.4385 41.1076 25.4735ZM16.9856 35.9875C16.5551 36.187 15.8201 36.8765 12.3131 40.394C9.08958 43.6245 8.10608 44.6675 7.94858 45.0105C7.81771 45.2949 7.75025 45.6043 7.75085 45.9174C7.75146 46.2304 7.82012 46.5396 7.95208 46.8235C8.19708 47.3485 9.00208 48.1745 9.54458 48.458C10.0941 48.745 10.9096 48.7415 11.4801 48.451C12.0646 48.15 20.1496 40.065 20.4506 39.4805C20.5939 39.1796 20.6692 38.8507 20.671 38.5174C20.6728 38.1841 20.6012 37.8545 20.4611 37.552C20.0737 36.9043 19.5266 36.3668 18.8721 35.991C18.5824 35.8345 18.2585 35.7523 17.9293 35.7517C17.6 35.7511 17.2758 35.8321 16.9856 35.9875ZM37.6356 35.9315C37.0826 36.1835 36.2671 36.9815 35.9836 37.5485C35.839 37.8319 35.7601 38.1443 35.7528 38.4624C35.7455 38.7806 35.8101 39.0962 35.9416 39.386C36.2006 39.9635 44.3346 48.1255 44.9751 48.451C45.8816 48.9165 46.8126 48.689 47.7506 47.772C48.6746 46.869 48.9196 45.889 48.4506 44.9755C48.1251 44.335 39.9631 36.201 39.3856 35.942C39.1096 35.8225 38.8124 35.76 38.5116 35.7582C38.2109 35.7564 37.9129 35.8153 37.6356 35.9315ZM27.1076 39.47C26.6347 39.6032 26.2074 39.8635 25.8721 40.2225C25.3891 40.8735 25.3856 40.919 25.3856 47.212C25.3856 52.224 25.4066 53.1445 25.5291 53.5575C25.8371 54.59 26.6526 55.094 28.0001 55.094C29.3476 55.094 30.1631 54.59 30.4711 53.5575C30.6881 52.8155 30.6846 41.563 30.4641 40.9155C30.3963 40.6544 30.2722 40.4114 30.1005 40.2034C29.9288 39.9954 29.7136 39.8275 29.4701 39.7115C29.0851 39.5015 28.8611 39.449 28.1996 39.4245C27.835 39.4025 27.4691 39.4178 27.1076 39.47Z" fill="url(#paint0_linear_656_73448)"/>
<defs>
<linearGradient id="paint0_linear_656_73448" x1="28.0001" y1="0.957031" x2="28.0001" y2="55.094" gradientUnits="userSpaceOnUse">
<stop/>
<stop offset="0.545966" stop-color="#D6D9DE"/>
<stop offset="1" stop-color="#EDEFF1"/>
</linearGradient>
</defs>
</svg>
