<svg width="146" height="44" viewBox="0 0 146 44" fill="none" xmlns="http://www.w3.org/2000/svg">
<path d="M50.93 22.83L59.55 12.36C59.5983 12.2988 59.6286 12.2252 59.6375 12.1477C59.6464 12.0702 59.6335 11.9917 59.6003 11.9211C59.567 11.8505 59.5148 11.7905 59.4494 11.7479C59.384 11.7054 59.308 11.6818 59.23 11.68H54C53.9365 11.68 53.8738 11.6944 53.8166 11.7221C53.7595 11.7498 53.7093 11.7901 53.67 11.84L48.31 18.65V12.09C48.31 11.9813 48.2668 11.877 48.1899 11.8001C48.113 11.7232 48.0087 11.68 47.9 11.68H43.24C43.1853 11.6787 43.1309 11.6883 43.08 11.7083C43.0291 11.7283 42.9827 11.7583 42.9436 11.7965C42.9045 11.8347 42.8734 11.8804 42.8521 11.9308C42.8309 11.9812 42.82 12.0353 42.82 12.09V33.81C42.82 33.9214 42.8643 34.0282 42.943 34.107C43.0218 34.1858 43.1286 34.23 43.24 34.23H47.86C47.9697 34.2274 48.0739 34.182 48.1505 34.1035C48.2272 34.025 48.27 33.9197 48.27 33.81V26.81L55.14 34.05C55.1788 34.0906 55.2253 34.1231 55.2768 34.1454C55.3284 34.1677 55.3839 34.1795 55.44 34.18H61.3C61.3811 34.1774 61.4596 34.1514 61.5262 34.105C61.5928 34.0587 61.6446 33.9941 61.6752 33.9191C61.7059 33.844 61.7142 33.7616 61.699 33.6819C61.6839 33.6023 61.6461 33.5287 61.59 33.47L50.93 22.83Z" fill="#151716"/>
<path d="M88.32 6.50002C87.3993 6.43659 86.4908 6.73934 85.7923 7.34239C85.0937 7.94543 84.6616 8.79996 84.59 9.72002C84.6542 10.6479 85.082 11.5129 85.7805 12.127C86.4789 12.7412 87.3915 13.0549 88.32 13C88.7771 13.0271 89.2352 12.9636 89.6677 12.8132C90.1003 12.6629 90.499 12.4287 90.8409 12.124C91.1827 11.8192 91.4611 11.45 91.66 11.0375C91.8589 10.625 91.9744 10.1773 92 9.72002C91.9721 9.26615 91.8544 8.82232 91.6539 8.4142C91.4534 8.00607 91.1739 7.64176 90.8317 7.34232C90.4895 7.04288 90.0913 6.81426 89.6602 6.66968C89.229 6.5251 88.7735 6.46744 88.32 6.50002Z" fill="#151716"/>
<path d="M90.87 15.62H85.77C85.5435 15.62 85.36 15.8036 85.36 16.03V33.81C85.36 34.0365 85.5435 34.22 85.77 34.22H90.87C91.0964 34.22 91.28 34.0365 91.28 33.81V16.03C91.28 15.8036 91.0964 15.62 90.87 15.62Z" fill="#151716"/>
<path d="M123.5 5.51001H118.36C118.134 5.51001 117.95 5.69357 117.95 5.92001V33.82C117.95 34.0464 118.134 34.23 118.36 34.23H123.5C123.726 34.23 123.91 34.0464 123.91 33.82V5.92001C123.91 5.69357 123.726 5.51001 123.5 5.51001Z" fill="#151716"/>
<path d="M135.45 15.19C133.534 15.19 131.66 15.7583 130.067 16.8231C128.473 17.8878 127.231 19.4012 126.498 21.1718C125.764 22.9424 125.572 24.8908 125.946 26.7704C126.32 28.6501 127.243 30.3767 128.598 31.7319C129.953 33.087 131.68 34.0099 133.56 34.3838C135.439 34.7577 137.388 34.5658 139.158 33.8324C140.929 33.099 142.442 31.857 143.507 30.2635C144.572 28.67 145.14 26.7965 145.14 24.88C145.14 22.3101 144.119 19.8454 142.302 18.0281C140.485 16.2109 138.02 15.19 135.45 15.19ZM135.45 29.13C134.609 29.132 133.786 28.8844 133.086 28.4186C132.386 27.9528 131.84 27.2898 131.516 26.5133C131.193 25.7369 131.108 24.8821 131.27 24.057C131.433 23.2319 131.837 22.4737 132.431 21.8784C133.025 21.283 133.783 20.8772 134.607 20.7124C135.432 20.5476 136.287 20.6312 137.064 20.9526C137.841 21.2739 138.506 21.8187 138.973 22.5178C139.441 23.2169 139.69 24.039 139.69 24.88C139.69 26.0054 139.244 27.0849 138.449 27.8817C137.654 28.6784 136.575 29.1274 135.45 29.13Z" fill="#151716"/>
<path d="M81.85 15.66H76.65V17.78C74.8406 16.1114 72.4611 15.1989 70 15.23C68.7248 15.1934 67.4556 15.4193 66.2714 15.8936C65.0871 16.3679 64.0129 17.0806 63.1156 17.9873C62.2182 18.8941 61.5167 19.9756 61.0548 21.1647C60.5928 22.3538 60.3801 23.6252 60.43 24.9C60.4017 26.1696 60.6291 27.432 61.0987 28.6119C61.5682 29.7919 62.2703 30.8654 63.1632 31.7685C64.056 32.6716 65.1214 33.3859 66.2959 33.8689C67.4704 34.3519 68.7301 34.5937 70 34.58C72.4647 34.6186 74.8509 33.7135 76.67 32.05V34.23H81.87C81.9251 34.23 81.9797 34.2191 82.0307 34.198C82.0816 34.1769 82.1279 34.146 82.1669 34.107C82.2059 34.068 82.2369 34.0217 82.258 33.9707C82.2791 33.9198 82.29 33.8652 82.29 33.81V16.08C82.29 16.0231 82.2785 15.9668 82.2562 15.9145C82.2338 15.8622 82.2011 15.815 82.16 15.7757C82.1188 15.7364 82.0701 15.7059 82.0168 15.686C81.9636 15.6662 81.9068 15.6573 81.85 15.66ZM71.29 29.73C70.6316 29.7554 69.9747 29.6504 69.3571 29.4211C68.7394 29.1919 68.1732 28.8428 67.6909 28.3939C67.2086 27.9451 66.8198 27.4053 66.5467 26.8057C66.2737 26.2061 66.1219 25.5585 66.1 24.9C66.214 23.6022 66.8102 22.3942 67.7709 21.5142C68.7316 20.6342 69.9871 20.1461 71.29 20.1461C72.5928 20.1461 73.8483 20.6342 74.8091 21.5142C75.7698 22.3942 76.3659 23.6022 76.48 24.9C76.4581 25.5585 76.3062 26.2061 76.0332 26.8057C75.7602 27.4053 75.3713 27.9451 74.889 28.3939C74.4067 28.8428 73.8405 29.1919 73.2228 29.4211C72.6052 29.6504 71.9483 29.7554 71.29 29.73Z" fill="#151716"/>
<path d="M109.12 15.62V17.93C108.12 16.3 105.69 15.23 103.12 15.23C100.521 15.2076 98.0133 16.1891 96.12 17.97C95.1434 18.8504 94.3695 19.9322 93.8515 21.1407C93.3336 22.3492 93.084 23.6557 93.12 24.97C93.0849 26.2725 93.3353 27.5668 93.8535 28.7623C94.3718 29.9577 95.1454 31.0252 96.12 31.89C98.024 33.6503 100.527 34.6193 103.12 34.6C105.69 34.6 108.22 33.53 109.12 31.89C109.42 36.32 107.58 38.51 103.59 38.51C102.62 38.5072 101.667 38.2647 100.813 37.8041C99.9603 37.3435 99.2342 36.6791 98.7 35.87C98.6526 35.7766 98.5713 35.705 98.4727 35.6696C98.3742 35.6343 98.2659 35.638 98.17 35.68L94.17 37.52C94.1181 37.5456 94.0717 37.5811 94.0335 37.6246C93.9954 37.6681 93.9662 37.7187 93.9476 37.7735C93.929 37.8283 93.9214 37.8862 93.9253 37.944C93.9291 38.0017 93.9443 38.0581 93.97 38.11C94.9451 39.7947 96.3578 41.1843 98.0585 42.1314C99.7591 43.0786 101.684 43.548 103.63 43.49C110.88 43.49 114.95 39.49 114.95 31.62V14.81H109.16L109.12 15.62ZM103.8 29.68C103.142 29.7054 102.486 29.6008 101.869 29.3721C101.252 29.1434 100.687 28.7952 100.204 28.3474C99.7222 27.8997 99.3331 27.3611 99.0595 26.7626C98.7859 26.1642 98.6332 25.5176 98.61 24.86C98.724 23.5622 99.3202 22.3542 100.281 21.4742C101.242 20.5942 102.497 20.1061 103.8 20.1061C105.103 20.1061 106.358 20.5942 107.319 21.4742C108.28 22.3542 108.876 23.5622 108.99 24.86C108.967 25.5176 108.814 26.1642 108.54 26.7626C108.267 27.3611 107.878 27.8997 107.396 28.3474C106.913 28.7952 106.348 29.1434 105.731 29.3721C105.114 29.6008 104.458 29.7054 103.8 29.68Z" fill="#151716"/>
<path d="M27.73 10C27.7247 9.38818 27.478 8.80321 27.0434 8.37244C26.6089 7.94167 26.0218 7.69999 25.41 7.70001H21V6.48001C21 4.88871 20.3678 3.36259 19.2426 2.23737C18.1174 1.11215 16.5913 0.480011 15 0.480011C13.4087 0.480011 11.8826 1.11215 10.7573 2.23737C9.63213 3.36259 8.99999 4.88871 8.99999 6.48001V7.70001H4.64999C4.03813 7.69999 3.45104 7.94167 3.01653 8.37244C2.58201 8.80321 2.33526 9.38818 2.32999 10L0.859985 30.5C0.86263 31.1162 1.10928 31.7063 1.54595 32.1411C1.98263 32.5759 2.57376 32.82 3.18999 32.82H7.43998V12.61H11.74C12.0052 12.61 12.2596 12.7154 12.4471 12.9029C12.6346 13.0904 12.74 13.3448 12.74 13.61V20.4L13.84 19.3L14.98 18.15L20 13.2C20.2677 12.9365 20.6246 12.7831 21 12.77H27.93L27.73 10ZM19.26 7.70001H10.8V6.48001C10.8 5.35815 11.2456 4.28223 12.0389 3.48895C12.8322 2.69567 13.9081 2.25001 15.03 2.25001C16.1519 2.25001 17.2278 2.69567 18.021 3.48895C18.8143 4.28223 19.26 5.35815 19.26 6.48001V7.70001Z" fill="#007A49"/>
<path d="M32.76 12.77H27.93L17.68 23L27.47 32.79H20.54C20.3532 32.7876 20.1688 32.7484 19.9972 32.6746C19.8256 32.6009 19.6702 32.4939 19.54 32.36L15.08 27.91L13.94 26.76L12.8 25.62V31.8C12.8 32.0652 12.6946 32.3196 12.5071 32.5071C12.3196 32.6947 12.0652 32.8 11.8 32.8H7.44V35.45C7.44 36.0715 7.68621 36.6678 8.12476 37.1082C8.56331 37.5486 9.15848 37.7974 9.78 37.8H32.78C33.0886 37.8 33.3942 37.7392 33.6793 37.6211C33.9644 37.503 34.2235 37.3299 34.4417 37.1117C34.6599 36.8935 34.833 36.6344 34.9511 36.3493C35.0692 36.0642 35.13 35.7586 35.13 35.45V15.12C35.13 14.8097 35.0686 14.5025 34.9492 14.2161C34.8299 13.9296 34.655 13.6697 34.4347 13.4512C34.2143 13.2327 33.9529 13.06 33.6655 12.9431C33.378 12.8262 33.0703 12.7674 32.76 12.77Z" fill="#FFC12E"/>
</svg>
