<svg width="16" height="16" viewBox="0 0 16 16" fill="none" xmlns="http://www.w3.org/2000/svg">
<path d="M10.1587 14.8467H10.0721C7.11207 14.8467 5.68537 13.68 5.43871 11.0667C5.41204 10.7933 5.61204 10.5467 5.89204 10.52C6.15871 10.4933 6.41204 10.7 6.43871 10.9733C6.63204 13.0667 7.61874 13.8467 10.0787 13.8467H10.1654C12.8787 13.8467 13.8387 12.8867 13.8387 10.1733V5.82665C13.8387 3.11332 12.8787 2.15332 10.1654 2.15332H10.0787C7.60541 2.15332 6.61871 2.94665 6.43871 5.07999C6.40537 5.35332 6.17204 5.55999 5.89204 5.53332C5.61204 5.51332 5.41204 5.26665 5.43204 4.99332C5.65871 2.33999 7.09207 1.15332 10.0721 1.15332H10.1587C13.4321 1.15332 14.8321 2.55332 14.8321 5.82665V10.1733C14.8321 13.4467 13.4321 14.8467 10.1587 14.8467Z" fill="#151716"/>
<path d="M9.99973 8.5H2.41309C2.13975 8.5 1.91309 8.27333 1.91309 8C1.91309 7.72667 2.13975 7.5 2.41309 7.5H9.99973C10.2731 7.5 10.4997 7.72667 10.4997 8C10.4997 8.27333 10.2731 8.5 9.99973 8.5Z" fill="#151716"/>
<path d="M3.89964 10.7332C3.77297 10.7332 3.6463 10.6865 3.5463 10.5865L1.31297 8.3532C1.11964 8.15987 1.11964 7.83987 1.31297 7.64653L3.5463 5.41323C3.73964 5.21989 4.05964 5.21989 4.25297 5.41323C4.4463 5.60656 4.4463 5.92656 4.25297 6.11989L2.37297 7.99987L4.25297 9.87987C4.4463 10.0732 4.4463 10.3932 4.25297 10.5865C4.15964 10.6865 4.0263 10.7332 3.89964 10.7332Z" fill="#151716"/>
</svg>
