<svg width="32" height="32" viewBox="0 0 32 32" fill="none" xmlns="http://www.w3.org/2000/svg">
<path opacity="0.4" d="M2.66663 24C2.66663 21.9461 2.66663 20.9191 3.12893 20.1647C3.38762 19.7426 3.74253 19.3876 4.16467 19.129C4.91908 18.6667 5.94604 18.6667 7.99996 18.6667C10.0539 18.6667 11.0808 18.6667 11.8352 19.129C12.2574 19.3876 12.6123 19.7426 12.871 20.1647C13.3333 20.9191 13.3333 21.9461 13.3333 24C13.3333 26.0539 13.3333 27.0809 12.871 27.8353C12.6123 28.2574 12.2574 28.6123 11.8352 28.871C11.0808 29.3333 10.0539 29.3333 7.99996 29.3333C5.94604 29.3333 4.91908 29.3333 4.16467 28.871C3.74253 28.6123 3.38762 28.2574 3.12893 27.8353C2.66663 27.0809 2.66663 26.0539 2.66663 24Z" stroke="#141B34" stroke-width="1.5"/>
<path d="M18.6666 24C18.6666 21.9461 18.6666 20.9191 19.1289 20.1647C19.3876 19.7426 19.7425 19.3876 20.1647 19.129C20.9191 18.6667 21.946 18.6667 24 18.6667C26.0539 18.6667 27.0808 18.6667 27.8352 19.129C28.2574 19.3876 28.6123 19.7426 28.871 20.1647C29.3333 20.9191 29.3333 21.9461 29.3333 24C29.3333 26.0539 29.3333 27.0809 28.871 27.8353C28.6123 28.2574 28.2574 28.6123 27.8352 28.871C27.0808 29.3333 26.0539 29.3333 24 29.3333C21.946 29.3333 20.9191 29.3333 20.1647 28.871C19.7425 28.6123 19.3876 28.2574 19.1289 27.8353C18.6666 27.0809 18.6666 26.0539 18.6666 24Z" stroke="#141B34" stroke-width="1.5"/>
<path d="M2.66663 7.99999C2.66663 5.94607 2.66663 4.91911 3.12893 4.1647C3.38762 3.74257 3.74253 3.38765 4.16467 3.12896C4.91908 2.66666 5.94604 2.66666 7.99996 2.66666C10.0539 2.66666 11.0808 2.66666 11.8352 3.12896C12.2574 3.38765 12.6123 3.74257 12.871 4.1647C13.3333 4.91911 13.3333 5.94607 13.3333 7.99999C13.3333 10.0539 13.3333 11.0809 12.871 11.8353C12.6123 12.2574 12.2574 12.6123 11.8352 12.871C11.0808 13.3333 10.0539 13.3333 7.99996 13.3333C5.94604 13.3333 4.91908 13.3333 4.16467 12.871C3.74253 12.6123 3.38762 12.2574 3.12893 11.8353C2.66663 11.0809 2.66663 10.0539 2.66663 7.99999Z" stroke="#141B34" stroke-width="1.5"/>
<path opacity="0.4" d="M18.6666 7.99999C18.6666 5.94607 18.6666 4.91911 19.1289 4.1647C19.3876 3.74257 19.7425 3.38765 20.1647 3.12896C20.9191 2.66666 21.946 2.66666 24 2.66666C26.0539 2.66666 27.0808 2.66666 27.8352 3.12896C28.2574 3.38765 28.6123 3.74257 28.871 4.1647C29.3333 4.91911 29.3333 5.94607 29.3333 7.99999C29.3333 10.0539 29.3333 11.0809 28.871 11.8353C28.6123 12.2574 28.2574 12.6123 27.8352 12.871C27.0808 13.3333 26.0539 13.3333 24 13.3333C21.946 13.3333 20.9191 13.3333 20.1647 12.871C19.7425 12.6123 19.3876 12.2574 19.1289 11.8353C18.6666 11.0809 18.6666 10.0539 18.6666 7.99999Z" stroke="#141B34" stroke-width="1.5"/>
</svg>
