<svg width="16" height="16" viewBox="0 0 16 16" fill="none" xmlns="http://www.w3.org/2000/svg">
<g clip-path="url(#clip0_448_34210)">
<path d="M4.66665 7.16668H3.33331C1.71998 7.16668 0.833313 6.28001 0.833313 4.66668V3.33334C0.833313 1.72001 1.71998 0.833344 3.33331 0.833344H4.66665C6.27998 0.833344 7.16665 1.72001 7.16665 3.33334V4.66668C7.16665 6.28001 6.27998 7.16668 4.66665 7.16668ZM3.33331 1.83334C2.27998 1.83334 1.83331 2.28001 1.83331 3.33334V4.66668C1.83331 5.72001 2.27998 6.16668 3.33331 6.16668H4.66665C5.71998 6.16668 6.16665 5.72001 6.16665 4.66668V3.33334C6.16665 2.28001 5.71998 1.83334 4.66665 1.83334H3.33331Z" fill="white"/>
<path d="M12.6666 7.16668H11.3333C9.71998 7.16668 8.83331 6.28001 8.83331 4.66668V3.33334C8.83331 1.72001 9.71998 0.833344 11.3333 0.833344H12.6666C14.28 0.833344 15.1666 1.72001 15.1666 3.33334V4.66668C15.1666 6.28001 14.28 7.16668 12.6666 7.16668ZM11.3333 1.83334C10.28 1.83334 9.83331 2.28001 9.83331 3.33334V4.66668C9.83331 5.72001 10.28 6.16668 11.3333 6.16668H12.6666C13.72 6.16668 14.1666 5.72001 14.1666 4.66668V3.33334C14.1666 2.28001 13.72 1.83334 12.6666 1.83334H11.3333Z" fill="white"/>
<path d="M12.6666 15.1667H11.3333C9.71998 15.1667 8.83331 14.28 8.83331 12.6667V11.3333C8.83331 9.72001 9.71998 8.83334 11.3333 8.83334H12.6666C14.28 8.83334 15.1666 9.72001 15.1666 11.3333V12.6667C15.1666 14.28 14.28 15.1667 12.6666 15.1667ZM11.3333 9.83334C10.28 9.83334 9.83331 10.28 9.83331 11.3333V12.6667C9.83331 13.72 10.28 14.1667 11.3333 14.1667H12.6666C13.72 14.1667 14.1666 13.72 14.1666 12.6667V11.3333C14.1666 10.28 13.72 9.83334 12.6666 9.83334H11.3333Z" fill="white"/>
<path d="M4.66665 15.1667H3.33331C1.71998 15.1667 0.833313 14.28 0.833313 12.6667V11.3333C0.833313 9.72001 1.71998 8.83334 3.33331 8.83334H4.66665C6.27998 8.83334 7.16665 9.72001 7.16665 11.3333V12.6667C7.16665 14.28 6.27998 15.1667 4.66665 15.1667ZM3.33331 9.83334C2.27998 9.83334 1.83331 10.28 1.83331 11.3333V12.6667C1.83331 13.72 2.27998 14.1667 3.33331 14.1667H4.66665C5.71998 14.1667 6.16665 13.72 6.16665 12.6667V11.3333C6.16665 10.28 5.71998 9.83334 4.66665 9.83334H3.33331Z" fill="white"/>
</g>
<defs>
<clipPath id="clip0_448_34210">
<rect width="16" height="16" fill="white"/>
</clipPath>
</defs>
</svg>
