<svg width="24" height="24" viewBox="0 0 24 24" fill="none" xmlns="http://www.w3.org/2000/svg">
<path d="M11.9975 13.2989C11.8675 13.2989 11.7375 13.2689 11.6175 13.1989L2.78741 8.08892C2.42741 7.87892 2.30739 7.41889 2.51739 7.05889C2.72739 6.69889 3.17739 6.57888 3.54739 6.78888L11.9975 11.6789L20.3974 6.8189C20.7574 6.6089 21.2174 6.73892 21.4274 7.08892C21.6374 7.44892 21.5075 7.9089 21.1575 8.1189L12.3875 13.1989C12.2575 13.2589 12.1275 13.2989 11.9975 13.2989Z" fill="#151716"/>
<path d="M12 22.3591C11.59 22.3591 11.25 22.0191 11.25 21.6091V12.5391C11.25 12.1291 11.59 11.7891 12 11.7891C12.41 11.7891 12.75 12.1291 12.75 12.5391V21.6091C12.75 22.0191 12.41 22.3591 12 22.3591Z" fill="#151716"/>
<path d="M12.0006 22.75C11.1206 22.75 10.2506 22.56 9.56061 22.18L4.22062 19.21C2.77062 18.41 1.64062 16.48 1.64062 14.82V9.16998C1.64062 7.50998 2.77062 5.59002 4.22062 4.78002L9.56061 1.82C10.9306 1.06 13.0706 1.06 14.4406 1.82L19.7806 4.78997C21.2306 5.58997 22.3606 7.51999 22.3606 9.17999V14.83C22.3606 16.49 21.2306 18.41 19.7806 19.22L14.4406 22.18C13.7506 22.56 12.8806 22.75 12.0006 22.75ZM12.0006 2.74999C11.3706 2.74999 10.7506 2.88 10.2906 3.13L4.95063 6.09997C3.99063 6.63997 3.14062 8.06999 3.14062 9.17999V14.83C3.14062 15.93 3.99063 17.37 4.95063 17.91L10.2906 20.88C11.2006 21.39 12.8006 21.39 13.7106 20.88L19.0506 17.91C20.0106 17.37 20.8606 15.94 20.8606 14.83V9.17999C20.8606 8.07999 20.0106 6.63997 19.0506 6.09997L13.7106 3.13C13.2506 2.88 12.6306 2.74999 12.0006 2.74999Z" fill="#151716"/>
<path d="M17.0012 13.9905C16.5912 13.9905 16.2512 13.6505 16.2512 13.2405V10.0206L7.13116 4.76056C6.77116 4.55056 6.65114 4.09054 6.86114 3.74054C7.07114 3.38054 7.52116 3.26052 7.88116 3.47052L17.3712 8.95056C17.6012 9.08056 17.7512 9.33052 17.7512 9.60052V13.2606C17.7512 13.6506 17.4112 13.9905 17.0012 13.9905Z" fill="#151716"/>
</svg>
