<svg width="136" height="40" viewBox="0 0 136 40" fill="none" xmlns="http://www.w3.org/2000/svg">
<rect width="136" height="40" rx="8" fill="#D6E7FA"/>
<path d="M40.6698 30.7496C38.2898 30.7496 36.3398 29.0196 36.3398 26.8896V24.8496C36.3398 24.4396 36.6798 24.0996 37.0898 24.0996C37.4998 24.0996 37.8398 24.4396 37.8398 24.8496C37.8398 26.0996 39.0498 27.0396 40.6698 27.0396C42.2898 27.0396 43.4998 26.0996 43.4998 24.8496C43.4998 24.4396 43.8398 24.0996 44.2498 24.0996C44.6598 24.0996 44.9998 24.4396 44.9998 24.8496V26.8896C44.9998 29.0196 43.0598 30.7496 40.6698 30.7496ZM38.0998 27.8696C38.5398 28.6896 39.5298 29.2496 40.6698 29.2496C41.8098 29.2496 42.7998 28.6796 43.2398 27.8696C42.5298 28.2996 41.6498 28.5496 40.6698 28.5496C39.6898 28.5496 38.8098 28.2996 38.0998 27.8696Z" fill="#151716"/>
<path d="M40.6698 25.7994C39.0298 25.7994 37.5598 25.0494 36.8298 23.8594C36.5098 23.3394 36.3398 22.7294 36.3398 22.1094C36.3398 21.0594 36.7998 20.0794 37.6398 19.3494C39.2598 17.9294 42.0498 17.9295 43.6798 19.3395C44.5198 20.0795 44.9898 21.0594 44.9898 22.1094C44.9898 22.7294 44.8198 23.3394 44.4998 23.8594C43.7798 25.0494 42.3098 25.7994 40.6698 25.7994ZM40.6698 19.7495C39.8898 19.7495 39.1698 20.0094 38.6298 20.4794C38.1198 20.9194 37.8398 21.4994 37.8398 22.1094C37.8398 22.4594 37.9298 22.7795 38.1098 23.0795C38.5698 23.8395 39.5498 24.3095 40.6698 24.3095C41.7898 24.3095 42.7698 23.8395 43.2198 23.0895C43.3998 22.7995 43.4898 22.4695 43.4898 22.1195C43.4898 21.5095 43.2098 20.9294 42.6998 20.4794C42.1698 20.0094 41.4498 19.7495 40.6698 19.7495Z" fill="#151716"/>
<path d="M40.6698 28.55C38.1998 28.55 36.3398 26.96 36.3398 24.86V22.11C36.3398 19.98 38.2798 18.25 40.6698 18.25C41.7998 18.25 42.8798 18.64 43.6898 19.34C44.5298 20.08 44.9998 21.06 44.9998 22.11V24.86C44.9998 26.96 43.1398 28.55 40.6698 28.55ZM40.6698 19.75C39.1098 19.75 37.8398 20.81 37.8398 22.11V24.86C37.8398 26.11 39.0498 27.05 40.6698 27.05C42.2898 27.05 43.4998 26.11 43.4998 24.86V22.11C43.4998 21.5 43.2198 20.92 42.7098 20.47C42.1698 20.01 41.4498 19.75 40.6698 19.75Z" fill="#151716"/>
<path d="M52.5399 22.8012C51.0299 22.8012 49.7499 21.6812 49.6299 20.2412C49.5499 19.4112 49.8499 18.6012 50.4499 18.0112C50.9499 17.4912 51.6599 17.2012 52.4099 17.2012H54.4999C55.4899 17.2312 56.2499 18.0112 56.2499 18.9712V21.0312C56.2499 21.9912 55.4899 22.7712 54.5299 22.8012H52.5399ZM54.4699 18.7012H52.4199C52.0699 18.7012 51.7499 18.8312 51.5199 19.0712C51.2299 19.3512 51.0899 19.7312 51.1299 20.1112C51.1799 20.7712 51.8199 21.3012 52.5399 21.3012H54.4999C54.6299 21.3012 54.7499 21.1812 54.7499 21.0312V18.9712C54.7499 18.8212 54.6299 18.7112 54.4699 18.7012Z" fill="#151716"/>
<path d="M49.4983 29.25H46.9983C46.5883 29.25 46.2483 28.91 46.2483 28.5C46.2483 28.09 46.5883 27.75 46.9983 27.75H49.4983C52.0783 27.75 53.7483 26.08 53.7483 23.5V22.8H52.5382C51.0282 22.8 49.7483 21.68 49.6283 20.24C49.5483 19.41 49.8484 18.6 50.4484 18.01C50.9484 17.49 51.6583 17.2 52.4083 17.2H53.7383V16.5C53.7383 14.16 52.3684 12.55 50.1484 12.29C49.9084 12.25 49.6983 12.25 49.4883 12.25H40.4883C40.2483 12.25 40.0183 12.27 39.7883 12.3C37.5883 12.58 36.2383 14.18 36.2383 16.5V18.5C36.2383 18.91 35.8983 19.25 35.4883 19.25C35.0783 19.25 34.7383 18.91 34.7383 18.5V16.5C34.7383 13.42 36.6383 11.19 39.5883 10.82C39.8583 10.78 40.1683 10.75 40.4883 10.75H49.4883C49.7283 10.75 50.0383 10.76 50.3583 10.81C53.3083 11.15 55.2383 13.39 55.2383 16.5V17.95C55.2383 18.36 54.8983 18.7 54.4883 18.7H52.4083C52.0583 18.7 51.7383 18.83 51.5084 19.07C51.2183 19.35 51.0782 19.73 51.1182 20.11C51.1682 20.77 51.8084 21.3 52.5284 21.3H54.4983C54.9083 21.3 55.2483 21.64 55.2483 22.05V23.5C55.2483 26.94 52.9383 29.25 49.4983 29.25Z" fill="#151716"/>
<path d="M67.94 26V14.8H72.356C74.98 14.8 76.612 16.288 76.612 18.544V18.576C76.612 21.088 74.596 22.4 72.132 22.4H69.908V26H67.94ZM69.908 20.624H72.196C73.684 20.624 74.612 19.792 74.612 18.624V18.592C74.612 17.28 73.668 16.592 72.196 16.592H69.908V20.624ZM83.9715 26.192C80.5315 26.192 78.1315 23.584 78.1315 20.432V20.4C78.1315 17.248 80.5635 14.608 84.0035 14.608C87.4435 14.608 89.8435 17.216 89.8435 20.368V20.4C89.8435 23.552 87.4115 26.192 83.9715 26.192ZM84.0035 24.368C86.2275 24.368 87.7795 22.608 87.7795 20.432V20.4C87.7795 18.224 86.1955 16.432 83.9715 16.432C81.7475 16.432 80.1955 18.192 80.1955 20.368V20.4C80.1955 22.576 81.7795 24.368 84.0035 24.368ZM92.2213 26V14.8H96.3973C99.9173 14.8 102.349 17.216 102.349 20.368V20.4C102.349 23.552 99.9173 26 96.3973 26H92.2213ZM96.3973 16.592H94.1893V24.208H96.3973C98.7493 24.208 100.285 22.624 100.285 20.432V20.4C100.285 18.208 98.7493 16.592 96.3973 16.592Z" fill="#151716"/>
</svg>
