<svg width="90" height="32" viewBox="0 0 90 32" fill="none" xmlns="http://www.w3.org/2000/svg">
<path d="M0 3.11539C0 1.39481 1.39481 0 3.11538 0H86.0275C87.748 0 89.1429 1.39481 89.1429 3.11538V28.8846C89.1429 30.6052 87.7481 32 86.0275 32H3.11539C1.39481 32 0 30.6052 0 28.8846V3.11539Z" fill="#151716"/>
<path d="M33.3693 10.1934C33.3821 10.3915 33.3544 10.59 33.2879 10.7774C33.2214 10.9648 33.1174 11.1371 32.9821 11.2842C32.7823 11.4831 32.5357 11.6302 32.2642 11.7125C31.9927 11.7948 31.7047 11.8097 31.4259 11.756C31.1471 11.7023 30.8861 11.5816 30.6662 11.4046C30.4462 11.2276 30.2741 10.9998 30.1652 10.7415C30.0563 10.4832 30.0139 10.2025 30.0419 9.92416C30.0698 9.64586 30.1672 9.37868 30.3254 9.14639C30.4836 8.9141 30.6977 8.72391 30.9486 8.59275C31.1995 8.46158 31.4795 8.39351 31.7636 8.39458C31.9952 8.39684 32.2231 8.45294 32.4286 8.55832C32.6261 8.63968 32.798 8.77122 32.9269 8.93949L32.6494 9.21195C32.5446 9.08201 32.4091 8.97934 32.2547 8.91289C32.1002 8.84644 31.9316 8.81825 31.7636 8.83078C31.5961 8.82382 31.4292 8.85453 31.2755 8.92057C31.1219 8.98662 30.9856 9.08627 30.877 9.21195C30.6286 9.45855 30.4892 9.79177 30.4892 10.139C30.4892 10.4863 30.6286 10.8195 30.877 11.0661C31.1185 11.2909 31.432 11.4257 31.7636 11.4473C31.9392 11.4546 32.1144 11.4243 32.277 11.3585C32.4396 11.2927 32.5857 11.1929 32.7054 11.0661C32.7938 10.981 32.864 10.8791 32.9115 10.7666C32.9591 10.6541 32.9831 10.5333 32.9821 10.4115H31.7632V9.9753H33.369V10.1934H33.3693ZM35.9169 8.83078H34.4212V9.86659H35.8062V10.2478H34.4212V11.2842H35.9166V11.7198H33.9788V8.4486H35.9169V8.83078ZM37.7453 11.7198H37.3022V8.83078H36.3604V8.44893H38.6864V8.83078H37.7453V11.7198ZM40.2929 11.7198V8.4486H40.7354V11.7198H40.2929ZM42.619 11.7198H42.1758V8.83078H41.234V8.44893H43.5048V8.83078H42.5634V11.7198H42.619ZM47.8805 11.2842C47.5981 11.5672 47.2247 11.7449 46.824 11.7869C46.4233 11.8289 46.0202 11.7325 45.6836 11.5144C45.3471 11.2962 45.098 10.9698 44.9788 10.5908C44.8597 10.2119 44.8779 9.804 45.0305 9.43685C45.183 9.0697 45.4603 8.76608 45.8151 8.57791C46.1698 8.38974 46.5799 8.32868 46.9753 8.40519C47.3707 8.48169 47.7268 8.691 47.9828 8.99733C48.2388 9.30367 48.3788 9.68802 48.3788 10.0847C48.3852 10.308 48.3442 10.5301 48.2584 10.7369C48.1726 10.9437 48.0439 11.1306 47.8805 11.2856V11.2842ZM45.7736 11.0125C46.0087 11.2466 46.326 11.3832 46.6602 11.3943C46.8277 11.4013 46.9945 11.3706 47.1481 11.3044C47.3016 11.2382 47.4377 11.1384 47.5461 11.0125C47.7947 10.7663 47.9341 10.4332 47.934 10.086C47.9467 9.91249 47.9182 9.73842 47.8509 9.57754C47.7836 9.41666 47.6793 9.27336 47.5461 9.15894C47.3113 8.92482 46.9942 8.78817 46.6602 8.7771C46.4926 8.77031 46.3257 8.8012 46.1721 8.86742C46.0184 8.93364 45.8822 9.03346 45.7736 9.15928C45.5252 9.40585 45.386 9.73913 45.3864 10.0864C45.3736 10.2597 45.402 10.4336 45.4692 10.5943C45.5364 10.755 45.6406 10.8982 45.7736 11.0125ZM48.9862 11.7215V8.45028H49.4846L51.0904 11.0125V8.45028H51.5355V11.7215H51.0924L49.3776 9.05057V11.7215H48.9862Z" fill="white"/>
<path d="M44.8346 16.5199C44.5199 16.5129 44.207 16.5688 43.9149 16.6841C43.6227 16.7994 43.3574 16.9718 43.1348 17.1909C42.9122 17.41 42.737 17.6711 42.6197 17.9587C42.5025 18.2462 42.4456 18.5542 42.4526 18.864C42.4503 19.1725 42.5103 19.4784 42.6292 19.7638C42.7481 20.0493 42.9235 20.3087 43.1451 20.5268C43.3668 20.7449 43.6303 20.9175 43.9203 21.0345C44.2104 21.1514 44.5211 21.2104 44.8346 21.208C45.1492 21.2149 45.462 21.159 45.7541 21.0437C46.0462 20.9283 46.3115 20.7559 46.534 20.5369C46.7565 20.3178 46.9317 20.0566 47.0489 19.7691C47.166 19.4816 47.2228 19.1737 47.2158 18.864C47.2275 18.553 47.1739 18.2431 47.0583 17.9535C46.9428 17.6639 46.7678 17.4009 46.5443 17.1809C46.3208 16.9609 46.0536 16.7886 45.7595 16.6749C45.4653 16.5612 45.1504 16.5084 44.8346 16.5199ZM44.8346 20.2266C44.4705 20.2006 44.13 20.04 43.8814 19.7769C43.6328 19.5138 43.4946 19.1679 43.4946 18.8086C43.4946 18.4493 43.6328 18.1033 43.8814 17.8403C44.13 17.5772 44.4705 17.4165 44.8346 17.3906C45.0183 17.3918 45.1998 17.4302 45.3679 17.5033C45.536 17.5764 45.687 17.6828 45.8116 17.8157C45.9362 17.9487 46.0318 18.1054 46.0923 18.2762C46.1528 18.447 46.1771 18.6282 46.1636 18.8086C46.1724 18.9879 46.1449 19.1672 46.0826 19.336C46.0203 19.5048 45.9246 19.6597 45.8009 19.7917C45.6772 19.9237 45.528 20.0301 45.3621 20.1048C45.1962 20.1794 45.0169 20.2208 44.8346 20.2266ZM39.6831 16.5199C39.3685 16.513 39.0557 16.5689 38.7636 16.6842C38.4715 16.7996 38.2062 16.972 37.9837 17.191C37.7611 17.4101 37.586 17.6713 37.4688 17.9588C37.3516 18.2463 37.2948 18.5542 37.3019 18.864C37.2995 19.1724 37.3595 19.4783 37.4784 19.7637C37.5972 20.0491 37.7725 20.3084 37.9941 20.5266C38.2157 20.7447 38.4791 20.9173 38.7691 21.0343C39.0591 21.1512 39.3698 21.2103 39.6831 21.208C39.9978 21.215 40.3106 21.1591 40.6028 21.0438C40.8949 20.9285 41.1603 20.7561 41.3829 20.537C41.6055 20.318 41.7807 20.0568 41.898 19.7692C42.0152 19.4817 42.072 19.1737 42.0651 18.864C42.0767 18.553 42.0231 18.243 41.9075 17.9533C41.792 17.6637 41.6169 17.4006 41.3933 17.1806C41.1698 16.9606 40.9025 16.7884 40.6082 16.6747C40.314 16.561 39.999 16.5083 39.6831 16.5199ZM39.6831 20.2266C39.3199 20.1995 38.9804 20.0384 38.7328 19.7755C38.4851 19.5125 38.3475 19.1672 38.3475 18.8086C38.3475 18.45 38.4851 18.1047 38.7328 17.8417C38.9804 17.5788 39.3199 17.4176 39.6831 17.3906C39.8669 17.3918 40.0485 17.4301 40.2166 17.5032C40.3848 17.5763 40.5358 17.6826 40.6605 17.8156C40.7852 17.9485 40.8808 18.1053 40.9414 18.2761C41.002 18.4469 41.0263 18.6281 41.0128 18.8086C41.0216 18.988 40.9941 19.1673 40.9318 19.3362C40.8695 19.505 40.7736 19.6599 40.6499 19.7919C40.5261 19.9239 40.3769 20.0303 40.2109 20.1049C40.0449 20.1796 39.8655 20.2209 39.6831 20.2266ZM33.5357 17.2282V18.2097H35.9169C35.8829 18.6775 35.6876 19.1198 35.3634 19.4636C35.125 19.6995 34.8396 19.8843 34.5251 20.0063C34.2106 20.1284 33.8738 20.185 33.536 20.1726C33.1886 20.176 32.844 20.1103 32.523 19.9793C32.202 19.8483 31.9112 19.6548 31.6681 19.4104C31.4249 19.166 31.2345 18.8758 31.1082 18.5571C30.982 18.2384 30.9224 17.8979 30.9332 17.556C30.9271 17.2153 30.9898 16.8768 31.1177 16.5601C31.2457 16.2434 31.4363 15.955 31.6784 15.7114C31.9206 15.4679 32.2096 15.2742 32.5284 15.1416C32.8473 15.0089 33.1898 14.94 33.536 14.9388C34.2131 14.9455 34.8638 15.198 35.3634 15.6478L36.0836 14.9388C35.4154 14.303 34.5205 13.9506 33.5913 13.9574C33.107 13.9508 32.6263 14.0391 32.177 14.217C31.7276 14.3949 31.3187 14.6589 30.9739 14.9937C30.6292 15.3285 30.3554 15.7273 30.1685 16.1672C29.9817 16.607 29.8854 17.079 29.8854 17.5557C29.8854 18.0324 29.9817 18.5044 30.1685 18.9442C30.3554 19.384 30.6292 19.7829 30.9739 20.1177C31.3187 20.4525 31.7276 20.7165 32.177 20.8944C32.6263 21.0723 33.107 21.1605 33.5913 21.154C34.0676 21.1802 34.5438 21.1007 34.9847 20.9214C35.4257 20.7421 35.8201 20.4676 36.1388 20.1182C36.7237 19.4963 37.0414 18.6758 37.0254 17.8285C37.0371 17.6268 37.0185 17.4245 36.9702 17.2282H33.5357ZM58.6803 17.9922C58.5443 17.5737 58.2794 17.2072 57.9223 16.9435C57.5652 16.6799 57.1336 16.5322 56.6873 16.5209C55.4687 16.5209 54.4717 17.4473 54.4717 18.865C54.4632 19.1705 54.5171 19.4746 54.6302 19.7592C54.7434 20.0439 54.9135 20.3032 55.1305 20.5219C55.3475 20.7405 55.6069 20.914 55.8933 21.0321C56.1797 21.1501 56.4873 21.2103 56.7978 21.209C57.1837 21.2127 57.5642 21.1196 57.9035 20.9383C58.2427 20.7571 58.5294 20.4938 58.7366 20.1732L57.9611 19.6283C57.8418 19.8276 57.6717 19.9928 57.4677 20.1076C57.2637 20.2224 57.0328 20.2829 56.7978 20.283C56.5536 20.2952 56.3115 20.234 56.1036 20.1073C55.8958 19.9806 55.7321 19.7946 55.6344 19.574L58.7918 18.2657L58.6807 17.9926L58.6803 17.9922ZM55.4684 18.7563C55.4569 18.419 55.5766 18.0901 55.8031 17.8368C56.0295 17.5834 56.3457 17.4247 56.687 17.393C56.8661 17.3871 57.0434 17.4297 57.1996 17.5162C57.3559 17.6027 57.485 17.7298 57.5729 17.8835L55.4684 18.7563ZM52.8649 20.9916H53.9164V14.1751H52.8635L52.8649 20.9916ZM51.2039 17.0118C50.8692 16.6713 50.4113 16.475 49.9301 16.4659C49.3177 16.4936 48.7397 16.7529 48.3167 17.1897C47.8937 17.6265 47.6582 18.2071 47.6593 18.8106C47.6549 19.1079 47.7103 19.4032 47.8222 19.6793C47.9341 19.9555 48.1003 20.2072 48.3113 20.42C48.5223 20.6328 48.7739 20.8024 49.0517 20.9191C49.3295 21.0359 49.628 21.0975 49.9301 21.1003C50.1612 21.1021 50.39 21.0542 50.6004 20.9601C50.8109 20.866 50.9979 20.7279 51.1487 20.5554H51.2039V20.8822C51.2039 21.755 50.7055 22.2455 49.9301 22.2455C49.6737 22.2453 49.4239 22.1664 49.2153 22.0197C49.0068 21.873 48.8499 21.6658 48.7667 21.4271L47.8801 21.8073C48.0566 22.2125 48.3502 22.5577 48.7243 22.8C49.0985 23.0422 49.5368 23.1709 49.9846 23.1699C51.2032 23.1699 52.2002 22.4609 52.2002 20.7728V16.6286H51.2032V17.0104L51.2039 17.0118ZM49.9853 20.2279C49.6221 20.2009 49.2826 20.0397 49.035 19.7768C48.7873 19.5139 48.6497 19.1685 48.6497 18.8099C48.6497 18.4514 48.7873 18.106 49.035 17.8431C49.2826 17.5801 49.6221 17.419 49.9853 17.3919C50.7055 17.3919 51.2591 17.9915 51.2591 18.8099C51.2591 19.6283 50.7052 20.2266 49.9853 20.2266V20.2279ZM63.4984 14.1765H61.0067V20.992H62.0589V18.4278H63.4994C63.7911 18.4403 64.0824 18.3946 64.3556 18.2933C64.6288 18.1921 64.8784 18.0374 65.0893 17.8387C65.3003 17.6399 65.4681 17.4012 65.5828 17.1369C65.6974 16.8726 65.7565 16.5882 65.7565 16.3008C65.7565 16.0134 65.6974 15.7289 65.5828 15.4646C65.4681 15.2003 65.3003 14.9616 65.0893 14.7628C64.8784 14.5641 64.6288 14.4095 64.3556 14.3082C64.0824 14.207 63.7911 14.1612 63.4994 14.1738L63.4984 14.1765ZM63.5543 17.4476H62.0589V15.1022H63.5543C63.8682 15.1015 64.1702 15.2201 64.3972 15.4334C64.6243 15.6467 64.7589 15.9381 64.7729 16.2467C64.7604 16.561 64.6281 16.859 64.4022 17.0814C64.1763 17.3037 63.8735 17.434 63.5543 17.4463V17.4476ZM69.9233 16.4662C69.1478 16.4662 68.3727 16.7937 68.0959 17.5027L69.0371 17.8838C69.1292 17.7214 69.2672 17.5886 69.4343 17.5015C69.6014 17.4145 69.7905 17.3769 69.9788 17.3933C70.2414 17.374 70.5017 17.4532 70.7073 17.6151C70.9129 17.7771 71.0485 18.0096 71.087 18.266V18.3204C70.7648 18.144 70.4027 18.0503 70.0341 18.0479C69.0371 18.0479 68.04 18.5928 68.04 19.5743C68.0492 19.7861 68.1011 19.9939 68.1927 20.1857C68.2843 20.3776 68.4138 20.5495 68.5736 20.6916C68.7334 20.8337 68.9204 20.943 69.1235 21.0132C69.3267 21.0835 69.542 21.1132 69.757 21.1007C70.0164 21.1091 70.2739 21.0537 70.5061 20.9394C70.7383 20.825 70.9379 20.6555 71.0867 20.446H71.1419V20.992H72.1389V18.3747C72.0985 17.8338 71.8434 17.3303 71.4287 16.9732C71.0141 16.616 70.4733 16.4339 69.9233 16.4662ZM69.8122 20.2279C69.4802 20.2279 68.9815 20.0649 68.9815 19.6286C68.9815 19.0837 69.5913 18.9197 70.0896 18.9197C70.4161 18.9209 70.738 18.9955 71.0307 19.1378C70.9884 19.4306 70.8435 19.6996 70.6211 19.8984C70.3987 20.0972 70.1127 20.2133 69.8125 20.2266L69.8122 20.2279ZM75.6266 16.6286L74.4639 19.5726H74.4087L73.1901 16.6286H72.082L73.9103 20.7722L72.8581 23.0619H73.9117L76.7361 16.6286H75.6266ZM66.3224 20.9906H67.3747V14.1751H66.3224V20.9906Z" fill="white"/>
<path d="M12.5339 8.72363C12.3632 8.94063 12.2838 9.21397 12.3123 9.48699V21.5362C12.3004 21.8164 12.3997 22.0901 12.5891 22.2995L12.645 22.3539L19.5127 15.5935V15.4841L12.5339 8.72363Z" fill="white"/>
<path d="M22.4146 17.8835L20.1438 15.6481V15.4844L22.4146 13.249L22.4698 13.3041L25.1838 14.8304C25.9592 15.2666 25.9592 15.9749 25.1838 16.4111L22.4146 17.8835Z" fill="white"/>
<path d="M22.1262 18.1657L19.8002 15.876L12.8766 22.6908C13.1534 22.9632 13.5416 22.9632 14.0399 22.7451L22.1262 18.1657Z" fill="white"/>
<path d="M22.1262 12.9103L14.0399 8.38622C13.5416 8.11376 13.1534 8.16811 12.8766 8.44057L19.8002 15.2017L22.1262 12.9113V12.9103Z" fill="white"/>
</svg>
