<svg width="64" height="64" viewBox="0 0 64 64" fill="none" xmlns="http://www.w3.org/2000/svg">
<rect width="64" height="64" rx="32" fill="url(#paint0_linear_126_21917)"/>
<path d="M32 32.75C28.83 32.75 26.25 30.17 26.25 27C26.25 23.83 28.83 21.25 32 21.25C35.17 21.25 37.75 23.83 37.75 27C37.75 30.17 35.17 32.75 32 32.75ZM32 22.75C29.66 22.75 27.75 24.66 27.75 27C27.75 29.34 29.66 31.25 32 31.25C34.34 31.25 36.25 29.34 36.25 27C36.25 24.66 34.34 22.75 32 22.75Z" fill="white"/>
<path d="M40.5901 42.75C40.1801 42.75 39.8401 42.41 39.8401 42C39.8401 38.55 36.3202 35.75 32.0002 35.75C27.6801 35.75 24.1602 38.55 24.1602 42C24.1602 42.41 23.8202 42.75 23.4102 42.75C23.0002 42.75 22.6602 42.41 22.6602 42C22.6602 37.73 26.8501 34.25 32.0002 34.25C37.1502 34.25 41.3401 37.73 41.3401 42C41.3401 42.41 41.0001 42.75 40.5901 42.75Z" fill="white"/>
<defs>
<linearGradient id="paint0_linear_126_21917" x1="-3.63976e-07" y1="34.4615" x2="61.6744" y2="34.4615" gradientUnits="userSpaceOnUse">
<stop stop-color="#149BD6"/>
<stop offset="1" stop-color="#113CE6"/>
</linearGradient>
</defs>
</svg>
