<svg width="16" height="16" viewBox="0 0 16 16" fill="none" xmlns="http://www.w3.org/2000/svg">
<g clip-path="url(#clip0_112_48610)">
<path d="M7.66927 14.4997C3.9026 14.4997 0.835938 11.433 0.835938 7.66634C0.835938 3.89967 3.9026 0.833008 7.66927 0.833008C11.4359 0.833008 14.5026 3.89967 14.5026 7.66634C14.5026 11.433 11.4359 14.4997 7.66927 14.4997ZM7.66927 1.83301C4.44927 1.83301 1.83594 4.45301 1.83594 7.66634C1.83594 10.8797 4.44927 13.4997 7.66927 13.4997C10.8893 13.4997 13.5026 10.8797 13.5026 7.66634C13.5026 4.45301 10.8893 1.83301 7.66927 1.83301Z" fill="white"/>
<path d="M14.6676 15.1666C14.5409 15.1666 14.4143 15.12 14.3143 15.02L12.9809 13.6866C12.7876 13.4933 12.7876 13.1733 12.9809 12.98C13.1743 12.7866 13.4943 12.7866 13.6876 12.98L15.0209 14.3133C15.2143 14.5066 15.2143 14.8266 15.0209 15.02C14.9209 15.12 14.7943 15.1666 14.6676 15.1666Z" fill="white"/>
</g>
<defs>
<clipPath id="clip0_112_48610">
<rect width="16" height="16" fill="white"/>
</clipPath>
</defs>
</svg>
