<svg width="65" height="64" viewBox="0 0 65 64" fill="none" xmlns="http://www.w3.org/2000/svg">
<rect x="0.5" width="64" height="64" rx="32" fill="url(#paint0_linear_126_21913)"/>
<path d="M35.6998 42.7502H30.2998C25.3598 42.7502 23.2598 40.6402 23.2598 35.7102V31.2202C23.2598 30.8102 23.5998 30.4702 24.0098 30.4702C24.4198 30.4702 24.7598 30.8102 24.7598 31.2202V35.7102C24.7598 39.8002 26.2098 41.2502 30.2998 41.2502H35.6898C39.7798 41.2502 41.2298 39.8002 41.2298 35.7102V31.2202C41.2298 30.8102 41.5698 30.4702 41.9798 30.4702C42.3898 30.4702 42.7298 30.8102 42.7298 31.2202V35.7102C42.7398 40.6402 40.6298 42.7502 35.6998 42.7502Z" fill="white"/>
<path d="M32.999 32.75C31.899 32.75 30.899 32.32 30.189 31.53C29.479 30.74 29.149 29.71 29.259 28.61L29.929 21.93C29.969 21.55 30.289 21.25 30.679 21.25H35.349C35.739 21.25 36.059 21.54 36.099 21.93L36.769 28.61C36.879 29.71 36.549 30.74 35.839 31.53C35.099 32.32 34.099 32.75 32.999 32.75ZM31.349 22.75L30.749 28.76C30.679 29.43 30.879 30.06 31.299 30.52C32.149 31.46 33.849 31.46 34.699 30.52C35.119 30.05 35.319 29.42 35.249 28.76L34.649 22.75H31.349Z" fill="white"/>
<path d="M39.31 32.75C37.28 32.75 35.47 31.11 35.26 29.09L34.56 22.08C34.54 21.87 34.61 21.66 34.75 21.5C34.89 21.34 35.09 21.25 35.31 21.25H38.36C41.3 21.25 42.67 22.48 43.08 25.5L43.36 28.28C43.48 29.46 43.12 30.58 42.35 31.43C41.58 32.28 40.5 32.75 39.31 32.75ZM36.14 22.75L36.76 28.94C36.89 30.19 38.05 31.25 39.31 31.25C40.07 31.25 40.75 30.96 41.24 30.43C41.72 29.9 41.94 29.19 41.87 28.43L41.59 25.68C41.28 23.42 40.55 22.75 38.36 22.75H36.14Z" fill="white"/>
<path d="M26.639 32.75C25.449 32.75 24.369 32.28 23.599 31.43C22.829 30.58 22.469 29.46 22.589 28.28L22.859 25.53C23.279 22.48 24.649 21.25 27.5891 21.25H30.639C30.849 21.25 31.049 21.34 31.199 21.5C31.349 21.66 31.409 21.87 31.389 22.08L30.689 29.09C30.479 31.11 28.669 32.75 26.639 32.75ZM27.5891 22.75C25.399 22.75 24.669 23.41 24.349 25.7L24.079 28.43C23.999 29.19 24.229 29.9 24.709 30.43C25.189 30.96 25.869 31.25 26.639 31.25C27.899 31.25 29.069 30.19 29.189 28.94L29.8091 22.75H27.5891Z" fill="white"/>
<path d="M35.5 42.75H30.5C30.09 42.75 29.75 42.41 29.75 42V39.5C29.75 37.4 30.9 36.25 33 36.25C35.1 36.25 36.25 37.4 36.25 39.5V42C36.25 42.41 35.91 42.75 35.5 42.75ZM31.25 41.25H34.75V39.5C34.75 38.24 34.26 37.75 33 37.75C31.74 37.75 31.25 38.24 31.25 39.5V41.25Z" fill="white"/>
<defs>
<linearGradient id="paint0_linear_126_21913" x1="45.8333" y1="68" x2="21.1667" y2="-2.66667" gradientUnits="userSpaceOnUse">
<stop stop-color="#055814"/>
<stop offset="1" stop-color="#06B025"/>
</linearGradient>
</defs>
</svg>
