<svg width="16" height="16" viewBox="0 0 16 16" fill="none" xmlns="http://www.w3.org/2000/svg">
<g clip-path="url(#clip0_1223_19527)">
<path d="M8.66588 9.83334H7.99922C7.72588 9.83334 7.49922 9.60668 7.49922 9.33334C7.49922 9.06001 7.72588 8.83334 7.99922 8.83334H8.66588C9.12588 8.83334 9.49922 8.46001 9.49922 8.00001V1.83334H3.9992C3.21254 1.83334 2.49252 2.26 2.10585 2.94666C1.97252 3.18666 1.66588 3.27336 1.42588 3.14002C1.18588 3.00669 1.09918 2.70001 1.23252 2.46001C1.79252 1.46001 2.85254 0.833344 3.9992 0.833344H9.99922C10.2726 0.833344 10.4992 1.06001 10.4992 1.33334V8.00001C10.4992 9.01334 9.67922 9.83334 8.66588 9.83334Z" fill="white"/>
<path d="M12.6673 13.8333H12.0007C11.7273 13.8333 11.5007 13.6067 11.5007 13.3333C11.5007 12.8733 11.1273 12.5 10.6673 12.5C10.2073 12.5 9.83398 12.8733 9.83398 13.3333C9.83398 13.6067 9.60732 13.8333 9.33398 13.8333H6.66732C6.39398 13.8333 6.16732 13.6067 6.16732 13.3333C6.16732 12.8733 5.79398 12.5 5.33398 12.5C4.87398 12.5 4.50065 12.8733 4.50065 13.3333C4.50065 13.6067 4.27398 13.8333 4.00065 13.8333H3.33398C1.95398 13.8333 0.833984 12.7133 0.833984 11.3333C0.833984 11.06 1.06065 10.8333 1.33398 10.8333C1.60732 10.8333 1.83398 11.06 1.83398 11.3333C1.83398 12.16 2.50732 12.8333 3.33398 12.8333H3.5673C3.7873 12.0667 4.49398 11.5 5.33398 11.5C6.17398 11.5 6.88065 12.0667 7.10065 12.8333H8.90732C9.12732 12.0667 9.83398 11.5 10.674 11.5C11.514 11.5 12.2207 12.0667 12.4407 12.8333H12.6673C13.494 12.8333 14.1673 12.16 14.1673 11.3333V9.83334H12.6673C12.0273 9.83334 11.5007 9.30668 11.5007 8.66668V6.66668C11.5007 6.02668 12.0207 5.50001 12.6673 5.50001L11.954 4.25334C11.8073 3.99334 11.5273 3.83334 11.2273 3.83334H10.5007V8.00001C10.5007 9.01334 9.68065 9.83334 8.66732 9.83334H8.00065C7.72732 9.83334 7.50065 9.60668 7.50065 9.33334C7.50065 9.06001 7.72732 8.83334 8.00065 8.83334H8.66732C9.12732 8.83334 9.50065 8.46001 9.50065 8.00001V3.33334C9.50065 3.06001 9.72732 2.83334 10.0007 2.83334H11.2273C11.8873 2.83334 12.494 3.18668 12.8207 3.76002L13.9607 5.75334C14.0473 5.90668 14.0473 6.10001 13.9607 6.25334C13.874 6.40668 13.7073 6.50001 13.5273 6.50001H12.6673C12.574 6.50001 12.5007 6.57334 12.5007 6.66668V8.66668C12.5007 8.76001 12.574 8.83334 12.6673 8.83334H14.6673C14.9407 8.83334 15.1673 9.06001 15.1673 9.33334V11.3333C15.1673 12.7133 14.0473 13.8333 12.6673 13.8333Z" fill="white"/>
<path d="M5.33333 15.1667C4.32 15.1667 3.5 14.3467 3.5 13.3333C3.5 12.32 4.32 11.5 5.33333 11.5C6.34667 11.5 7.16667 12.32 7.16667 13.3333C7.16667 14.3467 6.34667 15.1667 5.33333 15.1667ZM5.33333 12.5C4.87333 12.5 4.5 12.8733 4.5 13.3333C4.5 13.7933 4.87333 14.1667 5.33333 14.1667C5.79333 14.1667 6.16667 13.7933 6.16667 13.3333C6.16667 12.8733 5.79333 12.5 5.33333 12.5Z" fill="white"/>
<path d="M10.6673 15.1667C9.65398 15.1667 8.83398 14.3467 8.83398 13.3333C8.83398 12.32 9.65398 11.5 10.6673 11.5C11.6807 11.5 12.5007 12.32 12.5007 13.3333C12.5007 14.3467 11.6807 15.1667 10.6673 15.1667ZM10.6673 12.5C10.2073 12.5 9.83398 12.8733 9.83398 13.3333C9.83398 13.7933 10.2073 14.1667 10.6673 14.1667C11.1273 14.1667 11.5007 13.7933 11.5007 13.3333C11.5007 12.8733 11.1273 12.5 10.6673 12.5Z" fill="white"/>
<path d="M14.6667 9.83333H12.6667C12.0267 9.83333 11.5 9.30667 11.5 8.66667V6.66667C11.5 6.02667 12.0267 5.5 12.6667 5.5H13.5267C13.7067 5.5 13.8733 5.59333 13.96 5.75333L15.1 7.75333C15.14 7.82667 15.1667 7.91333 15.1667 8V9.33333C15.1667 9.60667 14.94 9.83333 14.6667 9.83333ZM12.6667 6.5C12.5733 6.5 12.5 6.57333 12.5 6.66667V8.66667C12.5 8.76 12.5733 8.83333 12.6667 8.83333H14.1667V8.13333L13.2333 6.5H12.6667Z" fill="white"/>
<path d="M5.33398 5.83334H1.33398C1.06065 5.83334 0.833984 5.60668 0.833984 5.33334C0.833984 5.06001 1.06065 4.83334 1.33398 4.83334H5.33398C5.60732 4.83334 5.83398 5.06001 5.83398 5.33334C5.83398 5.60668 5.60732 5.83334 5.33398 5.83334Z" fill="white"/>
<path d="M4.00065 7.83334H1.33398C1.06065 7.83334 0.833984 7.60668 0.833984 7.33334C0.833984 7.06001 1.06065 6.83334 1.33398 6.83334H4.00065C4.27398 6.83334 4.50065 7.06001 4.50065 7.33334C4.50065 7.60668 4.27398 7.83334 4.00065 7.83334Z" fill="white"/>
<path d="M2.66732 9.83334H1.33398C1.06065 9.83334 0.833984 9.60668 0.833984 9.33334C0.833984 9.06001 1.06065 8.83334 1.33398 8.83334H2.66732C2.94065 8.83334 3.16732 9.06001 3.16732 9.33334C3.16732 9.60668 2.94065 9.83334 2.66732 9.83334Z" fill="white"/>
</g>
<defs>
<clipPath id="clip0_1223_19527">
<rect width="16" height="16" fill="white"/>
</clipPath>
</defs>
</svg>
