<svg width="32" height="32" viewBox="0 0 32 32" fill="none" xmlns="http://www.w3.org/2000/svg">
<rect width="32" height="32" rx="16" fill="#EAECF0"/>
<path d="M22.305 9.63676C22.2275 9.56987 22.1333 9.52538 22.0324 9.50808C21.9315 9.49079 21.8278 9.50136 21.7325 9.53864L9.06622 14.4955C8.88672 14.5653 8.73474 14.6915 8.63318 14.8552C8.53162 15.0188 8.48596 15.2111 8.5031 15.4029C8.52023 15.5947 8.59922 15.7758 8.72817 15.9189C8.85712 16.0619 9.02906 16.1592 9.2181 16.1961L12.5 16.8405V20.4999C12.4993 20.6992 12.5586 20.8941 12.67 21.0594C12.7814 21.2247 12.9399 21.3526 13.125 21.4268C13.3097 21.5022 13.5129 21.5203 13.7081 21.4787C13.9032 21.4372 14.0814 21.3378 14.2194 21.1936L15.8019 19.5524L18.3125 21.7499C18.4936 21.9106 18.7272 21.9995 18.9694 21.9999C19.0755 21.9998 19.1809 21.9831 19.2819 21.9505C19.4468 21.8982 19.5952 21.8035 19.7122 21.676C19.8292 21.5485 19.9108 21.3925 19.9487 21.2236L22.4856 10.1874C22.5083 10.0879 22.5035 9.98402 22.4717 9.88702C22.4398 9.79002 22.3822 9.70351 22.305 9.63676ZM18.4837 11.8868L12.8844 15.8968L9.78435 15.2886L18.4837 11.8868ZM13.5 20.4999V17.5324L15.0494 18.8911L13.5 20.4999ZM18.9706 20.9999L13.8031 16.4686L21.2406 11.138L18.9706 20.9999Z" fill="#151716"/>
</svg>
