<svg width="13" height="13" viewBox="0 0 13 13" fill="none" xmlns="http://www.w3.org/2000/svg">
<path d="M7.58497 2.97925H11.375C11.5077 2.97927 11.6357 3.02797 11.7349 3.11614C11.834 3.2043 11.8974 3.32578 11.9129 3.45754L11.9167 3.52091V7.31258C11.9178 7.45148 11.8655 7.5855 11.7706 7.68693C11.6757 7.78836 11.5454 7.84946 11.4068 7.8576C11.2681 7.86574 11.1316 7.82029 11.0255 7.73065C10.9194 7.64101 10.8518 7.51403 10.8366 7.37596L10.8333 7.31258L10.8328 4.8285L6.88297 8.77887C6.78977 8.87221 6.66571 8.92834 6.53407 8.93672C6.40243 8.94509 6.27225 8.90515 6.16797 8.82437L6.11706 8.77941L4.87339 7.53791L2.00906 10.4033C1.91158 10.5005 1.78078 10.5569 1.64322 10.5611C1.50567 10.5653 1.37167 10.517 1.26845 10.4259C1.16522 10.3349 1.10052 10.208 1.08746 10.071C1.07441 9.93403 1.114 9.7972 1.19818 9.68833L1.24314 9.63687L4.48989 6.38904C4.58309 6.2957 4.70715 6.23957 4.83879 6.23119C4.97043 6.22282 5.10061 6.26276 5.20489 6.34354L5.25581 6.3885L6.49947 7.63L10.0663 4.06258H7.58497C7.4523 4.06256 7.32425 4.01386 7.2251 3.92569C7.12596 3.83753 7.06262 3.71605 7.0471 3.58429L7.04331 3.52091C7.04332 3.38824 7.09203 3.26019 7.18019 3.16105C7.26835 3.0619 7.38984 2.99856 7.5216 2.98304L7.58497 2.97925H11.375H7.58497Z" fill="white"/>
</svg>
