<svg width="24" height="24" viewBox="0 0 24 24" fill="none" xmlns="http://www.w3.org/2000/svg">
<path d="M10.7924 15.1698C10.5924 15.1698 10.4025 15.0898 10.2624 14.9498L7.8425 12.5298C7.5525 12.2398 7.5525 11.7598 7.8425 11.4698C8.1325 11.1798 8.6125 11.1798 8.9025 11.4698L10.7924 13.3598L15.0925 9.05979C15.3825 8.76979 15.8624 8.76979 16.1524 9.05979C16.4424 9.34979 16.4424 9.82978 16.1524 10.1198L11.3225 14.9498C11.1825 15.0898 10.9924 15.1698 10.7924 15.1698Z" fill="#008000"/>
<path d="M12.0029 22.75C11.3729 22.75 10.7429 22.54 10.2529 22.12L8.67281 20.76C8.51281 20.62 8.11281 20.48 7.90281 20.48H6.18281C4.70281 20.48 3.50281 19.28 3.50281 17.8V16.09C3.50281 15.88 3.36281 15.49 3.22281 15.33L1.87281 13.74C1.05281 12.77 1.05281 11.24 1.87281 10.27L3.22281 8.68C3.36281 8.52 3.50281 8.13 3.50281 7.92V6.2C3.50281 4.72 4.70281 3.52 6.18281 3.52H7.91281C8.12281 3.52 8.52281 3.37 8.68281 3.24L10.2629 1.88C11.2429 1.04 12.7729 1.04 13.7529 1.88L15.3329 3.24C15.4929 3.38 15.8929 3.52 16.1029 3.52H17.8029C19.2829 3.52 20.4829 4.72 20.4829 6.2V7.9C20.4829 8.11 20.6329 8.51 20.7729 8.67L22.1329 10.25C22.9729 11.23 22.9729 12.76 22.1329 13.74L20.7729 15.32C20.6329 15.48 20.4829 15.88 20.4829 16.09V17.79C20.4829 19.27 19.2829 20.47 17.8029 20.47H16.1029C15.8929 20.47 15.4929 20.62 15.3329 20.75L13.7529 22.11C13.2629 22.54 12.6329 22.75 12.0029 22.75ZM6.18281 5.02C5.53281 5.02 5.00281 5.55 5.00281 6.2V7.91C5.00281 8.48 4.73281 9.21 4.36281 9.64L3.01281 11.23C2.66281 11.64 2.66281 12.35 3.01281 12.76L4.36281 14.35C4.73281 14.79 5.00281 15.51 5.00281 16.08V17.79C5.00281 18.44 5.53281 18.97 6.18281 18.97H7.91281C8.49281 18.97 9.22281 19.24 9.66281 19.62L11.2429 20.98C11.6529 21.33 12.3729 21.33 12.7829 20.98L14.3629 19.62C14.8029 19.25 15.5329 18.97 16.1129 18.97H17.8129C18.4629 18.97 18.9929 18.44 18.9929 17.79V16.09C18.9929 15.51 19.2629 14.78 19.6429 14.34L21.0029 12.76C21.3529 12.35 21.3529 11.63 21.0029 11.22L19.6429 9.64C19.2629 9.2 18.9929 8.47 18.9929 7.89V6.2C18.9929 5.55 18.4629 5.02 17.8129 5.02H16.1129C15.5329 5.02 14.8029 4.75 14.3629 4.37L12.7829 3.01C12.3729 2.66 11.6529 2.66 11.2429 3.01L9.66281 4.38C9.22281 4.75 8.48281 5.02 7.91281 5.02H6.18281Z" fill="#008000"/>
</svg>
