<svg width="48" height="48" viewBox="0 0 48 48" fill="none" xmlns="http://www.w3.org/2000/svg">
<path d="M0 24C0 10.7452 10.7452 0 24 0C37.2548 0 48 10.7452 48 24C48 37.2548 37.2548 48 24 48C10.7452 48 0 37.2548 0 24Z" fill="#1CC636"/>
<g clip-path="url(#clip0_60_12354)">
<path d="M15 32.9997L16.65 29.1997C15.3877 27.4078 14.8227 25.2168 15.061 23.0378C15.2994 20.8589 16.3248 18.8419 17.9447 17.3652C19.5646 15.8886 21.6677 15.0539 23.8594 15.0178C26.051 14.9817 28.1805 15.7467 29.8482 17.1691C31.5159 18.5915 32.6071 20.5737 32.9172 22.7436C33.2272 24.9135 32.7347 27.1219 31.5321 28.9545C30.3295 30.7871 28.4994 32.1177 26.3854 32.6968C24.2713 33.2759 22.0186 33.0636 20.05 32.0997L15 32.9997Z" stroke="white" stroke-width="2" stroke-linecap="round" stroke-linejoin="round"/>
<path d="M21 22C21 22.1326 21.0527 22.2598 21.1464 22.3536C21.2402 22.4473 21.3674 22.5 21.5 22.5C21.6326 22.5 21.7598 22.4473 21.8536 22.3536C21.9473 22.2598 22 22.1326 22 22V21C22 20.8674 21.9473 20.7402 21.8536 20.6464C21.7598 20.5527 21.6326 20.5 21.5 20.5C21.3674 20.5 21.2402 20.5527 21.1464 20.6464C21.0527 20.7402 21 20.8674 21 21V22ZM21 22C21 23.3261 21.5268 24.5979 22.4645 25.5355C23.4021 26.4732 24.6739 27 26 27M26 27H27C27.1326 27 27.2598 26.9473 27.3536 26.8536C27.4473 26.7598 27.5 26.6326 27.5 26.5C27.5 26.3674 27.4473 26.2402 27.3536 26.1464C27.2598 26.0527 27.1326 26 27 26H26C25.8674 26 25.7402 26.0527 25.6464 26.1464C25.5527 26.2402 25.5 26.3674 25.5 26.5C25.5 26.6326 25.5527 26.7598 25.6464 26.8536C25.7402 26.9473 25.8674 27 26 27Z" stroke="white" stroke-width="2" stroke-linecap="round" stroke-linejoin="round"/>
</g>
<defs>
<clipPath id="clip0_60_12354">
<rect width="24" height="24" fill="white" transform="translate(12 12)"/>
</clipPath>
</defs>
</svg>
