<svg width="32" height="32" viewBox="0 0 32 32" fill="none" xmlns="http://www.w3.org/2000/svg">
<rect width="32" height="32" rx="16" fill="#EAECF0"/>
<path d="M21.4219 21.2319L17.5094 15.0831L21.37 10.8363C21.4573 10.7378 21.5023 10.609 21.4953 10.4776C21.4882 10.3462 21.4296 10.2229 21.3322 10.1344C21.2349 10.0459 21.1066 9.99938 20.9751 10.0049C20.8436 10.0104 20.7197 10.0674 20.63 10.1637L16.9525 14.2087L14.4219 10.2319C14.3768 10.1608 14.3144 10.1024 14.2407 10.0618C14.1669 10.0213 14.0842 10 14 10H11C10.9104 9.99996 10.8223 10.024 10.7452 10.0697C10.668 10.1153 10.6046 10.1809 10.5614 10.2595C10.5183 10.338 10.4971 10.4268 10.5 10.5164C10.503 10.606 10.5299 10.6932 10.5781 10.7688L14.4906 16.9169L10.63 21.1669C10.5849 21.2153 10.5499 21.2722 10.527 21.3343C10.504 21.3963 10.4936 21.4623 10.4964 21.5284C10.4992 21.5945 10.515 21.6594 10.5431 21.7194C10.5711 21.7793 10.6107 21.8331 10.6597 21.8776C10.7087 21.9221 10.766 21.9564 10.8283 21.9786C10.8906 22.0008 10.9568 22.0104 11.0228 22.0068C11.0889 22.0033 11.1536 21.9867 11.2132 21.9579C11.2728 21.9292 11.3261 21.8889 11.37 21.8394L15.0475 17.7944L17.5781 21.7712C17.6236 21.8417 17.6861 21.8996 17.7598 21.9395C17.8336 21.9795 17.9161 22.0003 18 22H21C21.0896 22 21.1775 21.9759 21.2545 21.9303C21.3316 21.8847 21.395 21.8192 21.4381 21.7407C21.4812 21.6622 21.5024 21.5736 21.4996 21.4841C21.4967 21.3946 21.4699 21.3075 21.4219 21.2319ZM18.2744 21L11.9106 11H13.7231L20.0894 21H18.2744Z" fill="#151716"/>
</svg>
