<svg width="32" height="32" viewBox="0 0 32 32" fill="none" xmlns="http://www.w3.org/2000/svg">
<rect width="32" height="32" rx="16" fill="#EAECF0"/>
<path d="M18.2775 15.5838L15.2775 13.5838C15.2022 13.5335 15.1146 13.5046 15.0242 13.5003C14.9338 13.4959 14.8438 13.5161 14.764 13.5589C14.6842 13.6016 14.6175 13.6652 14.571 13.7429C14.5245 13.8206 14.4999 13.9095 14.5 14V18C14.4999 18.0905 14.5245 18.1794 14.571 18.2571C14.6175 18.3348 14.6842 18.3984 14.764 18.4411C14.8438 18.4839 14.9338 18.5041 15.0242 18.4997C15.1146 18.4954 15.2022 18.4665 15.2775 18.4163L18.2775 16.4163C18.3461 16.3706 18.4023 16.3087 18.4412 16.2361C18.4801 16.1635 18.5005 16.0824 18.5005 16C18.5005 15.9176 18.4801 15.8365 18.4412 15.7639C18.4023 15.6913 18.3461 15.6294 18.2775 15.5838ZM15.5 17.0656V14.9375L17.0988 16L15.5 17.0656ZM22.6456 12.345C22.5867 12.1146 22.4739 11.9015 22.3164 11.7233C22.159 11.5451 21.9614 11.4068 21.74 11.32C19.5975 10.4925 16.1875 10.5 16 10.5C15.8125 10.5 12.4025 10.4925 10.26 11.32C10.0386 11.4068 9.84102 11.5451 9.68356 11.7233C9.5261 11.9015 9.41327 12.1146 9.35438 12.345C9.1925 12.9688 9 14.1088 9 16C9 17.8913 9.1925 19.0313 9.35438 19.655C9.41318 19.8855 9.52597 20.0988 9.68344 20.2771C9.8409 20.4554 10.0385 20.5937 10.26 20.6806C12.3125 21.4725 15.525 21.5 15.9587 21.5H16.0413C16.475 21.5 19.6894 21.4725 21.74 20.6806C21.9615 20.5937 22.1591 20.4554 22.3166 20.2771C22.474 20.0988 22.5868 19.8855 22.6456 19.655C22.8075 19.03 23 17.8913 23 16C23 14.1088 22.8075 12.9688 22.6456 12.345ZM21.6775 19.4075C21.6585 19.4842 21.6215 19.5553 21.5697 19.6149C21.5179 19.6745 21.4526 19.7211 21.3794 19.7506C19.4013 20.5144 16.0369 20.5006 16.0044 20.5006H16C15.9662 20.5006 12.6044 20.5131 10.625 19.7506C10.5517 19.7211 10.4865 19.6745 10.4347 19.6149C10.3829 19.5553 10.3459 19.4842 10.3269 19.4075C10.175 18.8369 10 17.7856 10 16C10 14.2144 10.175 13.1631 10.3225 12.5956C10.3412 12.5185 10.378 12.4469 10.4298 12.3868C10.4817 12.3267 10.5471 12.2798 10.6206 12.25C12.5281 11.5131 15.7244 11.5 15.9862 11.5H16.0031C16.0369 11.5 19.4019 11.4888 21.3781 12.25C21.4514 12.2796 21.5166 12.3261 21.5684 12.3857C21.6203 12.4454 21.6572 12.5164 21.6763 12.5931C21.825 13.1631 22 14.2144 22 16C22 17.7856 21.825 18.8369 21.6775 19.4044V19.4075Z" fill="#151716"/>
</svg>
