<svg width="30" height="30" viewBox="0 0 30 30" fill="none" xmlns="http://www.w3.org/2000/svg">
<path opacity="0.4" d="M1.66699 23C1.66699 20.9461 1.66699 19.9191 2.1293 19.1647C2.38798 18.7426 2.7429 18.3877 3.16504 18.129C3.91945 17.6667 4.94641 17.6667 7.00033 17.6667C9.05424 17.6667 10.0812 17.6667 10.8356 18.129C11.2577 18.3877 11.6127 18.7426 11.8714 19.1647C12.3337 19.9191 12.3337 20.9461 12.3337 23C12.3337 25.0539 12.3337 26.0809 11.8714 26.8353C11.6127 27.2574 11.2577 27.6124 10.8356 27.871C10.0812 28.3334 9.05424 28.3334 7.00033 28.3334C4.94641 28.3334 3.91945 28.3334 3.16504 27.871C2.7429 27.6124 2.38798 27.2574 2.1293 26.8353C1.66699 26.0809 1.66699 25.0539 1.66699 23Z" stroke="#141B34" stroke-width="1.5"/>
<path d="M17.667 23C17.667 20.9461 17.667 19.9191 18.1293 19.1647C18.388 18.7426 18.7429 18.3877 19.165 18.129C19.9194 17.6667 20.9464 17.6667 23.0003 17.6667C25.0542 17.6667 26.0812 17.6667 26.8356 18.129C27.2578 18.3877 27.6127 18.7426 27.8714 19.1647C28.3337 19.9191 28.3337 20.9461 28.3337 23C28.3337 25.0539 28.3337 26.0809 27.8714 26.8353C27.6127 27.2574 27.2578 27.6124 26.8356 27.871C26.0812 28.3334 25.0542 28.3334 23.0003 28.3334C20.9464 28.3334 19.9194 28.3334 19.165 27.871C18.7429 27.6124 18.388 27.2574 18.1293 26.8353C17.667 26.0809 17.667 25.0539 17.667 23Z" stroke="#141B34" stroke-width="1.5"/>
<path d="M1.66699 7.00002C1.66699 4.9461 1.66699 3.91914 2.1293 3.16473C2.38798 2.7426 2.7429 2.38768 3.16504 2.12899C3.91945 1.66669 4.94641 1.66669 7.00033 1.66669C9.05424 1.66669 10.0812 1.66669 10.8356 2.12899C11.2577 2.38768 11.6127 2.7426 11.8714 3.16473C12.3337 3.91914 12.3337 4.9461 12.3337 7.00002C12.3337 9.05394 12.3337 10.0809 11.8714 10.8353C11.6127 11.2574 11.2577 11.6124 10.8356 11.871C10.0812 12.3334 9.05424 12.3334 7.00033 12.3334C4.94641 12.3334 3.91945 12.3334 3.16504 11.871C2.7429 11.6124 2.38798 11.2574 2.1293 10.8353C1.66699 10.0809 1.66699 9.05394 1.66699 7.00002Z" stroke="#141B34" stroke-width="1.5"/>
<path opacity="0.4" d="M17.667 7.00002C17.667 4.9461 17.667 3.91914 18.1293 3.16473C18.388 2.7426 18.7429 2.38768 19.165 2.12899C19.9194 1.66669 20.9464 1.66669 23.0003 1.66669C25.0542 1.66669 26.0812 1.66669 26.8356 2.12899C27.2578 2.38768 27.6127 2.7426 27.8714 3.16473C28.3337 3.91914 28.3337 4.9461 28.3337 7.00002C28.3337 9.05394 28.3337 10.0809 27.8714 10.8353C27.6127 11.2574 27.2578 11.6124 26.8356 11.871C26.0812 12.3334 25.0542 12.3334 23.0003 12.3334C20.9464 12.3334 19.9194 12.3334 19.165 11.871C18.7429 11.6124 18.388 11.2574 18.1293 10.8353C17.667 10.0809 17.667 9.05394 17.667 7.00002Z" stroke="#141B34" stroke-width="1.5"/>
</svg>
