<svg width="36" height="36" viewBox="0 0 36 36" fill="none" xmlns="http://www.w3.org/2000/svg">
<path d="M6 21H9.59223C10.0335 21 10.4686 21.0994 10.8633 21.2904L13.9262 22.7723C14.3209 22.9633 14.756 23.0627 15.1972 23.0627H16.7612C18.2738 23.0627 19.5 24.2493 19.5 25.713C19.5 25.7722 19.4595 25.8242 19.4007 25.8404L15.5893 26.8942C14.9056 27.0832 14.1735 27.0174 13.5375 26.7096L10.2632 25.1254" stroke="#007A49" stroke-width="1.5" stroke-linecap="round" stroke-linejoin="round"/>
<path d="M19.5 24.75L26.3892 22.6334C27.6104 22.2529 28.9306 22.7041 29.6957 23.7634C30.2488 24.5294 30.0236 25.6263 29.2177 26.0913L17.9443 32.5958C17.2273 33.0095 16.3814 33.1104 15.5927 32.8764L6 30.0299" stroke="#007A49" stroke-width="1.5" stroke-linecap="round" stroke-linejoin="round"/>
<path d="M22.5 18H19.5C16.6716 18 15.2574 18 14.3787 17.1213C13.5 16.2426 13.5 14.8284 13.5 12V9C13.5 6.17157 13.5 4.75736 14.3787 3.87868C15.2574 3 16.6716 3 19.5 3H22.5C25.3284 3 26.7426 3 27.6213 3.87868C28.5 4.75736 28.5 6.17157 28.5 9V12C28.5 14.8284 28.5 16.2426 27.6213 17.1213C26.7426 18 25.3284 18 22.5 18Z" stroke="#007A49" stroke-width="1.5" stroke-linecap="round" stroke-linejoin="round"/>
<path d="M19.5 7.5H22.5" stroke="#007A49" stroke-width="1.5" stroke-linecap="round" stroke-linejoin="round"/>
</svg>
