<?xml version="1.0" standalone="no"?>
<!DOCTYPE svg PUBLIC "-//W3C//DTD SVG 20010904//EN"
 "http://www.w3.org/TR/2001/REC-SVG-20010904/DTD/svg10.dtd">
<svg version="1.0" xmlns="http://www.w3.org/2000/svg"
 width="88.000000pt" height="88.000000pt" viewBox="0 0 88.000000 88.000000"
 preserveAspectRatio="xMidYMid meet">
<metadata>
Created by potrace 1.14, written by Peter Selinger 2001-2017
</metadata>
<g transform="translate(0.000000,88.000000) scale(0.100000,-0.100000)"
fill="#000000" stroke="none">
<path d="M85 857 c-22 -12 -50 -40 -62 -62 -23 -39 -23 -45 -22 -357 0 -310 0
-317 22 -350 12 -18 38 -43 56 -55 34 -23 38 -23 349 -23 298 0 318 1 358 21
31 15 48 32 63 63 20 40 21 60 21 349 0 344 -2 354 -66 403 l-37 29 -321 3
c-318 2 -321 2 -361 -21z"/>
</g>
</svg>
